<?xml version="1.0" encoding="UTF-8"?>
<svg width="24px" height="24px" viewBox="0 0 24 24" version="1.1" xmlns="http://www.w3.org/2000/svg" xmlns:xlink="http://www.w3.org/1999/xlink">
    <title>Icon/User/FillWhite</title>
    <g id="Icon/User/FillWhite" stroke="none" stroke-width="1" fill="none" fill-rule="evenodd">
        <rect id="Rectangle" x="0" y="0" width="24" height="24"></rect>
        <path d="M12.03,11.982409 C16.0262074,11.982409 19.4705642,14.794572 20.27,18.71 C20.3248427,18.9569923 20.3248427,19.2130077 20.27,19.46 C20.1870933,19.7062478 20.0465198,19.9291081 19.86,20.11 C19.6902935,20.3194218 19.474752,20.4870652 19.23,20.6 C18.9850698,20.7115569 18.7191384,20.7695163 18.45,20.77008 L5.53,20.77008 C4.98424638,20.7751401 4.46563509,20.5323859 4.12,20.11 C3.96129214,19.9179244 3.84843575,19.6922116 3.79,19.45 C3.73988673,19.2058786 3.73988673,18.9541214 3.79,18.71 C4.58943583,14.794572 8.03379256,11.982409 12.03,11.982409 Z M12,3.23 C12.856067,3.23099673 13.6764995,3.5728436 14.28,4.18 C14.5896184,4.47679205 14.8347205,4.83423267 15,5.23 C15.148789,5.62258745 15.2201031,6.04028462 15.21,6.46 C15.2181817,7.77449108 14.4265232,8.96197882 13.21,9.46 C12.6168608,9.69822953 11.9676901,9.76071655 11.34,9.64 C10.0558139,9.38627533 9.05174063,8.38256528 8.79755133,7.09847107 C8.54336203,5.81437686 9.0893238,4.50383393 10.18,3.78 C10.7195721,3.42208726 11.3525134,3.23081379 12,3.23 Z" id="Shape" fill="#FFFFFF"></path>
    </g>
</svg>