<?xml version="1.0" encoding="UTF-8"?>
<svg width="24px" height="24px" viewBox="0 0 24 24" version="1.1" xmlns="http://www.w3.org/2000/svg" xmlns:xlink="http://www.w3.org/1999/xlink">
    <title>Icon/User/Line</title>
    <g id="Icon/User/Line" stroke="none" strokeWidth="1" fill="none" fillRule="evenodd">
        <rect id="Rectangle" x="0" y="0" width="24" height="24"></rect>
        <path d="M11.995,11.9667362 C15.9955318,11.9667362 19.4409731,14.7880501 20.23,18.71 C20.2846671,18.9536378 20.2846671,19.2063622 20.23,19.45 C20.0883527,19.9414798 19.747482,20.3512499 19.29,20.58 C19.0545275,20.7006128 18.7945288,20.7656124 18.53,20.77 L5.6,20.77 C5.33317024,20.7784589 5.06846486,20.7200174 4.83,20.6 C4.58368796,20.4896449 4.3675902,20.3215689 4.2,20.11 C4.02661399,19.9242568 3.89680097,19.7022083 3.82,19.46 C3.74028554,19.2184005 3.71970949,18.9611999 3.76,18.71 C4.54902691,14.7880501 7.99446821,11.9667362 11.995,11.9667362 Z M12.0629342,12.8993332 C8.48770071,12.8723016 5.38871129,15.3883958 4.68,18.9 C4.65499863,19.0119545 4.65499863,19.1280455 4.68,19.24 C4.70897768,19.3511994 4.76379779,19.4539871 4.84,19.54 C4.92272528,19.6411207 5.029238,19.7201462 5.15,19.77 C5.26796529,19.8290848 5.39806513,19.8598979 5.53,19.86 L18.53,19.86 C18.6619349,19.8598979 18.7920347,19.8290848 18.91,19.77 C19.1379752,19.6724161 19.310375,19.4780078 19.38,19.24 C19.4050014,19.1280455 19.4050014,19.0119545 19.38,18.9 C18.7066986,15.4869857 15.7630677,13.0076356 12.3076614,12.9033875 L12.0629342,12.8993332 Z M13.32,3.47 C13.9037088,3.7211481 14.4033724,4.13406452 14.76,4.66 C15.1128324,5.18651354 15.3008262,5.8061968 15.3000027,6.44 C15.2831826,7.2998473 14.923099,8.11723709 14.3,8.71 C13.746437,9.26492139 13.0103981,9.59560084 12.2329515,9.64390399 L12.0449342,9.64833325 L11.8588165,9.64361105 C11.2976978,9.60750501 10.7553089,9.42029915 10.29,9.1 C9.49587185,8.56107433 8.98353155,7.69600459 8.89263176,6.74058969 C8.80173196,5.7851748 9.14174836,4.83901039 9.82,4.16 C10.2672284,3.71233796 10.838556,3.4092556 11.46,3.29 C12.0840996,3.16360215 12.7317187,3.22632252 13.32,3.47 Z M12.08,4.15997804 L12.07,4.15997804 C11.6172465,4.16043967 11.1749676,4.29625759 10.8,4.55 C10.2330811,4.9358438 9.86790507,5.55453436 9.80407512,6.23732147 C9.74024516,6.92010858 9.98441999,7.59576394 10.47,8.08 C10.7984732,8.39175126 11.2069251,8.6063616 11.65,8.7 C12.1040738,8.78477223 12.5729842,8.73614448 13,8.56 C13.4091247,8.38030056 13.7567366,8.08483046 14,7.71 C14.2524733,7.33497284 14.3849968,6.89206544 14.38,6.44 C14.3773536,5.83265244 14.1335448,5.25123217 13.7022098,4.82364798 C13.2708749,4.39606379 12.6873475,4.15734204 12.08,4.15997804 Z" id="Shape" fill="#1F1F27"></path>
    </g>
</svg>