<?xml version="1.0" encoding="UTF-8"?>
<svg width="345px" height="345px" viewBox="0 0 345 345" version="1.1" xmlns="http://www.w3.org/2000/svg" xmlns:xlink="http://www.w3.org/1999/xlink">
    <title>Illustration/Stand By</title>
    <g id="Illustration/Stand-By" stroke="none" stroke-width="1" fill="none" fill-rule="evenodd">
        <g id="Stand-By-Phone-Illustration" transform="translate(28.000000, 42.000000)">
            <path d="M144.71207,218.766122 C185.480613,218.766122 221.531209,249.746454 243.401212,218.766122 C257.313072,199.059037 269.51563,174.773696 265.486845,149.031461 C262.43102,129.506031 237.995144,135.985844 219.034019,113.094275 C189.952065,77.9839337 191.779473,28.0883871 144.71207,28.0883871 C99.7984972,28.0883871 114.49664,72.3499638 85.7464455,104.766554 C63.090453,130.311773 30.9689091,122.439962 23.9372954,149.031461 C17.382671,173.819127 31.7563635,198.002532 45.1156265,217.462839 C66.8876508,249.177934 103.374587,218.766122 144.71207,218.766122 Z" id="Oval" fill="#F8F6FC" fill-rule="nonzero" transform="translate(144.284042, 130.311773) rotate(15.000000) translate(-144.284042, -130.311773) "></path>
            <g id="3" transform="translate(61.000000, 16.381779)">
                <g id="Legs">
                    <g id="Shoo" transform="translate(46.398625, 0.000000)">
                        <path d="M28.7994416,41.0479141 C27.2831186,39.0797546 27.036555,37.952454 27.2878436,35.2585276 C27.5395619,32.5650307 29.863445,24.0271779 31.9888746,20.6478528 C34.1147337,17.2685276 36.1826031,14.9288957 33.4880155,14.3581595 C30.7938574,13.7869939 24.8003007,17.5532515 21.6916237,22.5022086 C18.5833763,27.4520245 18.3346649,27.757362 16.4596649,28.9203067 C14.5855241,30.083681 9.28655498,34.1655828 11.6143041,36.9582822 C13.9424828,39.7505521 14.104854,38.6747853 16.1044244,41.1166258 C18.1039948,43.5584663 20.6263316,47.159816 20.6263316,47.159816 L28.7994416,41.0479141 Z" id="Fill-17" fill="#FFB2B4"></path>
                        <g id="Group-22">
                            <path d="M21.6920103,22.5022086 C18.5833333,27.4520245 18.334622,27.757362 16.4600515,28.9203067 L16.4600515,28.9203067 C14.5859107,30.083681 9.28651203,34.1655828 11.6142612,36.9582822 L11.6142612,36.9582822 C13.9424399,39.7509816 14.104811,38.6747853 16.104811,41.1166258 L16.104811,41.1166258 C18.1039519,43.5584663 20.6262887,47.1602454 20.6262887,47.1602454 L20.6262887,47.1602454 L28.7993986,41.0479141 C27.2830756,39.0797546 27.036512,37.9520245 27.2882302,35.2585276 L27.2882302,35.2585276 C27.5399485,32.5650307 29.8634021,24.0271779 31.9888316,20.6478528 L31.9888316,20.6478528 C34.1146907,17.2689571 36.1825601,14.9288957 33.4879725,14.3581595 L33.4879725,14.3581595 C33.3062715,14.3195092 33.1095361,14.3006135 32.8994845,14.3006135 L32.8994845,14.3006135 C29.9978522,14.3006135 24.5906357,17.8869325 21.6920103,22.5022086" id="Clip-21"></path>
                            <path d="M33.113445,31.504681 C29.7032216,33.7305092 15.823067,36.2376258 14.5515893,46.9544969 C13.3917955,56.7347423 0.883634021,24.6343742 0.883634021,24.6343742 L28.8243557,0.305723926 C28.8243557,0.305723926 42.028823,15.6163988 41.7332904,16.1802638 C41.4381873,16.7441288 33.113445,31.504681 33.113445,31.504681" id="Fill-20" fill="#F4B132"></path>
                        </g>
                        <g id="Group-25" transform="translate(5.000000, 9.000000)">
                            <path d="M16.6920103,13.5022086 C13.5833333,18.4520245 13.334622,18.757362 11.4600515,19.9203067 L11.4600515,19.9203067 C9.58591065,21.083681 4.28651203,25.1655828 6.61426117,27.9582822 L6.61426117,27.9582822 C8.94243986,30.7509816 9.104811,29.6747853 11.104811,32.1166258 L11.104811,32.1166258 C13.1039519,34.5584663 15.6262887,38.1602454 15.6262887,38.1602454 L15.6262887,38.1602454 L23.7993986,32.0479141 C22.2830756,30.0797546 22.036512,28.9520245 22.2882302,26.2585276 L22.2882302,26.2585276 C22.5399485,23.5650307 24.8634021,15.0271779 26.9888316,11.6478528 L26.9888316,11.6478528 C29.1146907,8.26895706 31.1825601,5.92889571 28.4879725,5.35815951 L28.4879725,5.35815951 C28.3062715,5.3195092 28.1095361,5.3006135 27.8994845,5.3006135 L27.8994845,5.3006135 C24.9978522,5.3006135 19.5906357,8.88693252 16.6920103,13.5022086" id="Clip-24"></path>
                            <path d="M24.8016323,21.3236994 C24.5443299,21.7436994 15.5868557,23.1312454 12.9859107,28.0029018 C11.5696735,30.6560307 12.916323,32.7925337 11.4262027,34.0701411 C10.335567,35.0050491 0.514261168,21.829589 0.514261168,21.829589 L26.295189,0.353331288 L34.1646048,5.76738037 C34.1646048,5.76738037 24.9137457,21.137319 24.8016323,21.3236994" id="Fill-23" fill="#2D3A5B"></path>
                        </g>
                        <g id="Group-28" transform="translate(5.000000, 9.000000)">
                            <path d="M16.6920103,13.5022086 C13.5833333,18.4520245 13.334622,18.757362 11.4600515,19.9203067 L11.4600515,19.9203067 C9.58591065,21.083681 4.28651203,25.1655828 6.61426117,27.9582822 L6.61426117,27.9582822 C8.94243986,30.7509816 9.104811,29.6747853 11.104811,32.1166258 L11.104811,32.1166258 C13.1039519,34.5584663 15.6262887,38.1602454 15.6262887,38.1602454 L15.6262887,38.1602454 L23.7993986,32.0479141 C22.2830756,30.0797546 22.036512,28.9520245 22.2882302,26.2585276 L22.2882302,26.2585276 C22.5399485,23.5650307 24.8634021,15.0271779 26.9888316,11.6478528 L26.9888316,11.6478528 C29.1146907,8.26895706 31.1825601,5.92889571 28.4879725,5.35815951 L28.4879725,5.35815951 C28.3062715,5.3195092 28.1095361,5.3006135 27.8994845,5.3006135 L27.8994845,5.3006135 C24.9978522,5.3006135 19.5906357,8.88693252 16.6920103,13.5022086 L16.6920103,13.5022086 Z" id="Clip-27"></path>
                            <path d="M30.9185567,5.12608589 C28.9254296,5.48080982 25.7282646,6.23277301 22.9361684,8.30700613 C20.1445017,10.3816687 17.6655498,15.1837546 15.4645189,18.0365767 C13.8940722,20.072589 11.4155498,21.7835092 10.2974227,23.0662699 C9.17972509,24.3494601 6.47697595,28.3218528 7.21237113,30.5605644 C7.94776632,32.7992761 0.101116838,16.893816 0.101116838,16.893816 L25.0177835,0.856515337 L30.9185567,5.12608589 Z" id="Fill-26" fill="#F4B132"></path>
                        </g>
                    </g>
                    <g id="Shoo" transform="translate(0.000000, 61.533742)">
                        <path d="M27.5449313,25.8897301 C25.0655498,25.729546 24.054811,25.1708344 22.1969931,23.2039632 C20.3391753,21.237092 15.4568729,13.8566012 14.3202749,10.0302209 C13.1841065,6.20341104 12.7910653,3.10580368 10.5835911,4.7527362 C8.37611684,6.39966871 7.25025773,13.3863558 8.91821306,18.9880736 C10.5857388,24.589362 10.6506014,24.9780123 10.2876289,27.1535951 C9.92465636,29.3287485 9.49467354,36.003227 13.1295533,36.0977055 C16.764433,36.192184 16.0634021,35.3603436 19.2180412,35.4698528 C22.3722509,35.579362 26.7438144,36.0624908 26.7438144,36.0624908 L27.5449313,25.8897301 Z" id="Fill-35" fill="#FFB2B4"></path>
                        <g id="Group-40">
                            <path d="M10.5837629,4.75239264 C8.37585911,6.39932515 7.25042955,13.3864417 8.91795533,18.9877301 L8.91795533,18.9877301 C10.5854811,24.5894479 10.6507732,24.9776687 10.2878007,27.153681 L10.2878007,27.153681 C9.92439863,29.3288344 9.49441581,36.0033129 13.1297251,36.097362 L13.1297251,36.097362 C14.9325601,36.1446012 15.6683849,35.9638037 16.3371993,35.7825767 L16.3371993,35.7825767 C17.0171821,35.5983436 17.6280069,35.4145399 19.2177835,35.4699387 L19.2177835,35.4699387 C22.3724227,35.5794479 26.7439863,36.0625767 26.7439863,36.0625767 L26.7439863,36.0625767 L27.5446735,25.8893865 C25.0652921,25.7296319 24.0545533,25.1709202 22.1971649,23.2036196 L22.1971649,23.2036196 C20.3389175,21.2367485 15.4566151,13.8571166 14.3204467,10.0303067 L14.3204467,10.0303067 C13.3981959,6.92539877 12.9656357,4.3006135 11.6563574,4.30018405 L11.6563574,4.30018405 C11.3518041,4.30018405 11,4.44190184 10.5837629,4.75239264 L10.5837629,4.75239264 Z" id="Clip-39"></path>
                            <path d="M23.8484536,19.304362 C23.8484536,19.304362 16.0353093,26.0179202 20.778866,37.0667546 C25.5228522,48.115589 2.1435567,36.9817239 2.1435567,36.9817239 L0.268127148,0.0762638037 L14.6972509,1.34528221 L23.8484536,19.304362 Z" id="Fill-38" fill="#F4B132"></path>
                        </g>
                        <g id="Group-43" transform="translate(4.000000, 0.000000)">
                            <path d="M6.58376289,4.75239264 C4.37585911,6.39932515 3.25042955,13.3864417 4.91795533,18.9877301 L4.91795533,18.9877301 C6.5854811,24.5894479 6.6507732,24.9776687 6.28780069,27.153681 L6.28780069,27.153681 C5.92439863,29.3288344 5.49441581,36.0033129 9.12972509,36.097362 L9.12972509,36.097362 C10.9325601,36.1446012 11.6683849,35.9638037 12.3371993,35.7825767 L12.3371993,35.7825767 C13.0171821,35.5983436 13.6280069,35.4145399 15.2177835,35.4699387 L15.2177835,35.4699387 C18.3724227,35.5794479 22.7439863,36.0625767 22.7439863,36.0625767 L22.7439863,36.0625767 L23.5446735,25.8893865 C21.0652921,25.7296319 20.0545533,25.1709202 18.1971649,23.2036196 L18.1971649,23.2036196 C16.3389175,21.2367485 11.4566151,13.8571166 10.3204467,10.0303067 L10.3204467,10.0303067 C9.39819588,6.92539877 8.96563574,4.3006135 7.65635739,4.30018405 L7.65635739,4.30018405 C7.35180412,4.30018405 7,4.44190184 6.58376289,4.75239264" id="Clip-42"></path>
                            <path d="M16.1475086,18.0590061 C16.2935567,18.5292515 11.4245704,26.1729939 13.3687285,31.3418282 C14.4275773,34.1564294 16.9215636,34.5553865 16.8985284,36.5175337 C16.8811856,37.9536074 0.498024055,36.6343436 0.498024055,36.6343436 L1.37517182,3.0966135 L10.6371993,0.759558282 C10.6371993,0.759558282 16.0817869,17.8520123 16.1475086,18.0590061" id="Fill-41" fill="#2D3A5B"></path>
                        </g>
                        <g id="Group-46" transform="translate(0.000000, 2.000000)">
                            <path d="M10.5837629,2.75239264 C8.37585911,4.39932515 7.25042955,11.3864417 8.91795533,16.9877301 L8.91795533,16.9877301 C10.5854811,22.5894479 10.6507732,22.9776687 10.2878007,25.153681 L10.2878007,25.153681 C9.92439863,27.3288344 9.49441581,34.0033129 13.1297251,34.097362 L13.1297251,34.097362 C14.9325601,34.1446012 15.6683849,33.9638037 16.3371993,33.7825767 L16.3371993,33.7825767 C17.0171821,33.5983436 17.6280069,33.4145399 19.2177835,33.4699387 L19.2177835,33.4699387 C22.3724227,33.5794479 26.7439863,34.0625767 26.7439863,34.0625767 L26.7439863,34.0625767 L27.5446735,23.8893865 C25.0652921,23.7296319 24.0545533,23.1709202 22.1971649,21.2036196 L22.1971649,21.2036196 C20.3389175,19.2367485 15.4566151,11.8571166 14.3204467,8.03030675 L14.3204467,8.03030675 C13.3981959,4.92539877 12.9656357,2.3006135 11.6563574,2.30018405 L11.6563574,2.30018405 C11.3518041,2.30018405 11,2.44190184 10.5837629,2.75239264 L10.5837629,2.75239264 Z" id="Clip-45"></path>
                            <path d="M12.0130584,0.774398773 C10.9645189,2.50550307 9.41898625,5.40298773 9.1354811,8.86906135 C8.85154639,12.335135 10.824055,17.3661166 11.5152062,20.9026196 C12.0087629,23.4256258 11.6582474,26.4163006 11.884622,28.1027423 C12.1109966,29.789184 13.3120275,34.4409632 15.4799828,35.3659939 C17.6475086,36.291454 0.516494845,31.6873436 0.516494845,31.6873436 L4.91039519,2.3882638 L12.0130584,0.774398773 Z" id="Fill-44" fill="#F4B132"></path>
                        </g>
                    </g>
                    <g id="Leg-2" transform="translate(65.546794, 40.362640)">
                        <path d="M38.4670379,105.99628 C37.2406634,102.976403 22.1130861,52.7335805 20.8355946,50.7800222 C19.5581032,48.826464 0.587312862,6.69290568 0.026316298,5.03137194 C-0.535539372,3.36983819 8.07098984,0.224991569 9.43611011,0.00210813296 C10.8008008,-0.22120475 27.5739967,17.3161572 41.7668661,43.4858505 C55.9597355,69.6551143 67.4434125,96.1507584 67.4434125,96.1507584 L38.4670379,105.99628 Z" id="Fill-30" fill="#38466A"></path>
                        <path d="M33.3724503,89.9275437 C38.7182407,94.4565008 44.2796668,98.798648 50.4308696,101.93147 L50.4308696,101.93147 L67.4433266,96.1506726 C67.4433266,96.1506726 62.1499417,83.9376051 54.3088764,67.9045989 L54.3088764,67.9045989 C51.3187562,65.9639241 48.2375706,64.161102 45.0507149,62.5292002 L45.0507149,62.5292002 C37.954495,58.8960713 30.2182407,56.1961327 22.3316428,54.8352124 L22.3316428,54.8352124 C24.7861101,62.1585867 29.6190139,77.8226971 33.3724503,89.9275437" id="Fill-32" fill="#2E3A5B"></path>
                    </g>
                    <g id="Leg-1" transform="translate(23.283812, 86.034802)">
                        <path d="M101.927872,53.6777255 C96.7959992,47.4344126 81.3200541,19.892204 58.0391263,11.6377869 C34.758628,3.38336968 3.96438403,-1.11209044 3.25948712,0.236805264 C2.55416066,1.58527152 -0.462591913,8.5393206 0.0606039631,12.3317746 C0.583370286,16.1242286 27.3531297,29.2090752 49.6486624,33.0689525 C55.5777861,34.0953329 66.580793,62.4741059 72.2087998,67.3728175 L101.927872,53.6777255 Z" id="Fill-48" fill="#38466A"></path>
                        <path d="M49.6487483,33.0686948 C28.4485765,29.3990629 3.202872,17.3874065 0.323576472,12.9559341 C9.05209881,14.7982654 49.2415318,23.460658 55.7256383,28.1085721 C61.5705696,32.2982654 75.3072534,54.8245231 80.5005524,63.5517623 L72.2093153,67.3725599" id="Clip-51" fill="#2E3A5B"></path>
                    </g>
                </g>
                <g id="Head" transform="translate(140.000000, 179.618221)">
                    <path d="M16.7264939,33.0952504 C16.7264939,33.0952504 11.5754763,23.3351442 4.98712544,22.9019496 C-1.60165526,22.4691885 0.703064035,9.62078142 0.703064035,9.62078142 L11.1035289,0.0618787611 L11.9201956,1.60949823 L14.9981693,7.44136549 L13.8006781,11.0088257 L20.7780202,18.3917814 L16.7264939,33.0952504 Z" id="Fill-6" fill="#FFB2B4"></path>
                    <g id="Group-5">
                        <path d="M0.702763158,9.6209115 C0.702763158,9.6209115 -1.60152632,22.4693186 4.98725439,22.9020796 L4.98725439,22.9020796 C11.5751754,23.3352743 16.7266228,33.0953805 16.7266228,33.0953805 L16.7266228,33.0953805 L20.7781491,18.3919115 L13.800807,11.0089558 L14.9987281,7.44106195 L11.9203246,1.60962832 L11.1032281,0.0620088496 L0.702763158,9.6209115 Z" id="Clip-9"></path>
                        <path d="M16.7524982,7.98630619 C14.9429368,9.43852743 8.60044561,14.3155451 14.2027789,24.9459434 C19.8055421,35.5763416 26.1875772,7.50107611 26.1875772,7.50107611 L16.7524982,7.98630619 Z" id="Fill-8" fill="#F96662" opacity="0.458868118"></path>
                    </g>
                    <path d="M39.3434754,36.2720982 C41.446607,32.5806204 41.1495982,28.5908062 35.5214754,20.7998062 C29.7815982,12.8531336 20.9547211,9.00815133 19.1008877,10.2227442 C13.6348088,13.8040805 10.5009579,24.6603991 14.3998965,28.9988504 C19.8290105,35.0405938 24.7844579,42.071877 28.6477211,42.3702133 C32.511414,42.6681159 36.3867123,41.4630628 39.3434754,36.2720982" id="Fill-11" fill="#FFB2B4"></path>
                    <path d="M20.9693351,45.9309088 C21.873686,46.2890858 22.9486772,46.479015 24.1255368,46.5124044 C24.7242825,48.3613956 27.7915105,48.8102009 29.3964754,48.9190416 C31.6951772,49.0751478 34.0342825,48.6705726 36.1507386,47.7551832 C38.3398351,46.8085726 40.427493,45.3849708 41.3064842,43.0685283 C41.6830105,42.0763867 41.9241421,41.0087938 42.5052649,40.1085814 C43.2067386,39.020608 44.3552298,38.5423159 45.4818,38.0267319 C46.5658175,37.5315283 47.5608614,36.9292186 48.1170544,35.8252009 C48.5808351,34.9037407 48.7037649,33.8231389 48.534414,32.8097496 C48.1372561,30.430431 44.8018175,23.5049531 35.5025632,27.2007673 C35.4974053,27.2025018 35.4918175,27.2077053 35.4866596,27.2098735 C32.5784667,28.2596876 29.2112211,31.3445195 27.533186,36.1287407 C27.533186,36.1287407 22.9465281,26.6938558 18.2094316,29.6728823 C17.0575018,30.3974752 15.5475281,25.5837673 12.7691421,27.554608 C12.7691421,27.554608 13.5892474,28.9339796 13.6038614,31.836254 C13.6283614,36.6404221 13.7113175,43.053785 20.9693351,45.9309088" id="Fill-13" fill="#2E3A5B"></path>
                    <path d="M18.5830351,26.4498097 C17.2037281,26.8786681 14.2542719,29.583208 15.8317281,33.2612434 C17.4087544,36.9397124 21.6279123,34.4363761 20.7953421,30.7245177 C19.9636316,27.0130929 18.5830351,26.4498097 18.5830351,26.4498097" id="Fill-15" fill="#FFB2B4"></path>
                </g>
                <g id="Body" transform="translate(59.145085, 135.932642)">
                    <path d="M78.9761606,46.5737789 C82.500497,36.3504834 91.3570279,16.7381653 98.4425958,10.5657562 C104.675287,5.13650616 135.506688,2.9001198 136.535889,2.85977255 C137.187559,2.83448343 138.042151,5.40164253 138.580991,7.28782434 C138.903608,8.41659707 138.3815,9.61446071 137.338571,10.1417107 C132.23504,12.722688 117.30112,20.1072107 109.390133,22.2516198 C108.382812,22.5249607 107.663787,23.4158016 107.603725,24.4642562 C107.351466,28.8960062 104.272274,40.4696631 97.999426,51.0383471 C91.3753145,62.1988513 99.0055887,46.6806502 94.1122739,44.6631956 C90.4180486,43.1401729 77.6672439,50.3698925 78.9761606,46.5737789 Z" id="Fill-1" fill="#F4B132"></path>
                    <path d="M80.8651878,71.8854493 C81.3388174,71.9959948 83.4045118,69.7026084 85.8816291,66.685063 C83.8798575,60.4794039 84.7172896,51.0428812 90.0314655,48.7019948 C94.3795057,46.7868812 94.8604285,51.7704948 95.0925242,54.8618812 C95.9055026,53.7827675 96.4001538,53.1173357 96.4001538,53.1173357 C98.7060952,50.4361766 101.016327,44.0957903 94.6021631,36.0367675 C88.1879995,27.9777448 76.5806415,4.54254025 77.3103915,2.34760843 C78.0401415,0.152676616 51.9300211,-6.10005066 35.3577032,18.5226539 C35.3577032,18.5226539 55.1785026,65.877563 80.8651878,71.8854493" id="Fill-53" fill="#F4B132"></path>
                    <path d="M59.0862961,57.023466 C46.6640355,43.1568755 37.9085521,24.3059285 35.8315331,19.6138796 C43.603315,25.5271949 55.1850957,38.306146 66.5427393,55.6034425 C63.785388,56.3713551 61.3193817,56.8401028 59.0862961,57.023466" id="Clip-57" fill="#DD9D24"></path>
                    <path d="M4.29279054,38.8159062 C2.76722264,39.172588 1.97269177,39.4912698 2.0777998,40.0154971 C2.19105906,40.5794516 3.46608375,40.7003607 7.50351893,40.8001107 C8.84589856,40.8333607 10.2341825,40.8674743 10.5070344,40.9758607 C11.2762535,41.2807243 14.2008307,44.1216562 15.2626362,45.190838 L15.4359572,45.3648607 L19.35713,41.5743607 L14.8572196,37.8417243 C14.5620591,37.5964516 14.3548461,37.424588 14.2055498,37.3101562 C15.4715652,34.3003834 15.8375128,32.6400425 15.2935251,32.3749062 C14.6517226,32.0609743 13.2256856,33.7873834 12.0849418,35.3842471 C11.431556,34.8466334 9.92958375,33.8422243 9.84935844,33.7891107 C8.62624424,32.9729743 6.94365782,31.9340198 5.87541708,31.6226789 C5.70123807,31.5717243 5.17097881,31.4171334 4.97577819,31.7846107 C4.67332449,32.3576334 5.94448807,33.8167471 7.06549733,34.9407698 C4.0864356,33.2795653 2.29101893,32.4984062 1.59687696,32.560588 C1.50935844,32.5679289 1.43900041,32.5877925 1.38194177,32.6145653 C1.20947881,32.6953153 1.16228745,32.8404062 1.14984609,32.9116562 C1.02586153,33.6129289 3.21682757,35.3600653 4.65959609,36.3834743 C0.781324488,35.581588 0.127509674,35.9909516 0.0146794266,36.4590425 C-0.155209462,37.1676562 1.14212387,37.7627016 4.29279054,38.8159062" id="Fill-59" fill="#FFB2B4"></path>
                    <path d="M12.3447087,42.4058266 L16.5743415,39.2660766 L15.4872242,38.3644403 L10.6732766,41.0602812 C11.0430853,41.2783493 11.6642952,41.7956675 12.3447087,42.4058266" id="Fill-61" fill="#F96662"></path>
                    <path d="M83.7111699,65.2867062 C84.1187316,69.2844789 81.3241452,72.8987971 77.3806637,73.5270925 C66.7626081,75.2198198 45.4029415,76.6068198 36.6540927,73.2282743 C28.9588983,70.2560698 12.4607995,43.9445243 11.9404075,43.0502289 C11.610497,42.4832516 13.4569662,40.5145925 14.8551174,39.1465925 C15.6921205,38.3278653 16.9881668,38.2268198 17.9418612,38.9034789 C22.6090865,42.216388 36.1212594,51.9901607 41.7305958,58.000638 C42.4449013,58.7658198 43.5646236,58.983888 44.5110248,58.5425698 C48.5124229,56.6771153 60.1060526,53.8759107 72.3217501,54.5365925 C81.3318674,55.0241153 83.1714723,59.9917516 83.7111699,65.2867062" id="Fill-63" fill="#F4B132"></path>
                </g>
                <g id="Phone" transform="translate(191.170389, 133.618221)">
                    <path d="M5.8265198,7.20508923 C6.56039017,10.4797969 6.89559387,14.2046585 6.30824202,17.39752 C5.69363091,20.7364123 3.83105684,20.2100123 2.94300128,16.7393046 C2.46553832,14.8723508 1.64307535,9.33308923 2.74664943,7.79998154 C3.39405684,6.89967385 4.58579758,7.21068923 5.8265198,7.20508923" id="Finger" fill="#FFB2B4"></path>
                    <g transform="translate(0.000000, 1.874660)">
                        <path d="M0.661358687,5.5516719 L8.27989572,0.269579595 C8.97287721,-0.210728098 9.91928461,-0.031958867 10.3946179,0.668471902 L22.3720809,18.3399181 C22.8465624,19.0403488 22.6702291,19.9979488 21.9772476,20.4782565 L14.3582846,25.7603488 C13.6657291,26.2406565 12.7193217,26.0618873 12.2439883,25.3610257 L0.266525354,7.69001036 C-0.208382054,6.98957959 -0.0316227943,6.03197959 0.661358687,5.5516719" id="Fill-67" fill="#2E3A5B"></path>
                        <path d="M13.1084476,23.9439242 C13.0850217,23.6634934 13.2911698,23.4162319 13.5688735,23.3929704 C13.8461513,23.3692781 14.0906328,23.5773396 14.1136328,23.8586319 C14.1370587,24.1394934 13.9313365,24.3858934 13.6532068,24.4095857 C13.3759291,24.4337088 13.1318735,24.2247857 13.1084476,23.9439242" id="Fill-70" fill="#69748E"></path>
                        <path d="M12.4329717,17.1517273 C11.7957865,16.2251427 11.9572124,14.9970196 12.7937309,14.4090196 C13.6302494,13.8210196 14.8241198,14.0954196 15.461305,15.022435 C16.0984902,15.9490196 15.9370642,17.1771427 15.1009717,17.7651427 C14.2644531,18.3531427 13.0701568,18.0783119 12.4329717,17.1517273" id="Fill-72" fill="#69748E"></path>
                    </g>
                    <g id="Hand" transform="translate(2.385166, 0.000000)">
                        <path d="M5.93578889,12.1088369 C5.49027037,11.7258831 5.74752963,10.8837292 5.74752963,10.8837292 C5.74752963,10.8837292 4.73084444,10.9935754 4.1699,10.4469292 C3.63067778,9.92139077 4.1796963,8.57092923 4.1796963,8.57092923 C4.1796963,8.57092923 2.9049,8.47702154 2.59227037,7.76409846 C2.14888148,6.75265231 3.03906667,5.46379077 3.03906667,5.46379077 C3.03906667,5.46379077 0.947344444,6.61480615 0.426011111,5.89154462 C0.309733333,5.72957538 0.535474074,5.42932923 0.629603704,5.29105231 C1.76214074,3.62440615 3.89177037,2.29203692 5.52008519,1.16471385 C5.68875185,1.04754462 5.86125185,0.930806154 6.05632593,0.869206154 C6.3106037,0.789083077 6.58362222,0.808036923 6.84854815,0.831729231 C7.49382593,0.891175385 8.86999259,0.843790769 9.33851111,1.30643692 C9.6439,1.60840615 9.47480741,2.77579077 9.66093704,2.90200615 C10.1826963,3.20354462 10.6047889,3.73339077 10.8215852,4.33086769 C10.9225296,4.61043692 10.914437,4.87019077 11.1657333,5.05068308 C11.3556963,5.18723692 11.7599,5.45991385 11.9008815,5.66840615 C12.1100111,5.97726769 12.1526037,6.51271385 12.2429,6.65874462 C12.3395852,6.81511385 12.5440296,6.89394462 12.662437,7.03782154 C12.812363,7.21874462 12.9277889,7.44102154 12.9426963,7.67536 C13.1220111,10.4693292 6.6866963,12.75456 5.93578889,12.1088369" id="Fill-74" fill="#FFB2B4"></path>
                        <g id="Group-86" transform="translate(0.000000, 0.382954)" opacity="0.268694196">
                            <g id="Group-79">
                                <path d="M6.05624074,0.486338462 C5.86116667,0.547507692 5.68866667,0.664676923 5.52042593,0.781846154 L5.52042593,0.781846154 C3.89168519,1.90916923 1.76205556,3.24110769 0.629518519,4.90818462 L0.629518519,4.90818462 C0.535388889,5.04646154 0.309648148,5.34670769 0.426351852,5.50867692 L0.426351852,5.50867692 C0.947259259,6.23193846 3.03898148,5.08092308 3.03898148,5.08092308 L3.03898148,5.08092308 C3.03898148,5.08092308 2.14922222,6.36978462 2.59261111,7.38123077 L2.59261111,7.38123077 C2.90481481,8.09458462 4.17961111,8.18806154 4.17961111,8.18806154 L4.17961111,8.18806154 C4.17961111,8.18806154 3.63059259,9.53852308 4.16938889,10.0640615 L4.16938889,10.0640615 C4.73075926,10.6107077 5.74744444,10.5008615 5.74744444,10.5008615 L5.74744444,10.5008615 C5.74744444,10.5008615 5.42374074,11.4403692 5.9357037,11.7259692 L5.9357037,11.7259692 C6.42338889,11.9982154 13.1219259,10.0864615 12.943037,7.29206154 L12.943037,7.29206154 C12.9281296,7.05815385 12.8122778,6.83587692 12.6623519,6.65452308 L12.6623519,6.65452308 C12.5439444,6.51064615 12.3395,6.43181538 12.2423889,6.27587692 L12.2423889,6.27587692 C12.1525185,6.12941538 12.1099259,5.59396923 11.9007963,5.28553846 L11.9007963,5.28553846 C11.7598148,5.07704615 11.3556111,4.80393846 11.1656481,4.66781538 L11.1656481,4.66781538 C10.9147778,4.48732308 10.9224444,4.22756923 10.8215,3.948 L10.8215,3.948 C10.6047037,3.35009231 10.1826111,2.82067692 9.66085185,2.51913846 L9.66085185,2.51913846 C9.47472222,2.39292308 9.64381481,1.22553846 9.33842593,0.923138462 L9.33842593,0.923138462 C8.86990741,0.460923077 7.49374074,0.507876923 6.84846296,0.448861538 L6.84846296,0.448861538 C6.72835185,0.438092308 6.60653704,0.428184615 6.48557407,0.428184615 L6.48557407,0.428184615 C6.33990741,0.428184615 6.19509259,0.4424 6.05624074,0.486338462" id="Clip-78"></path>
                                <path d="M8.1207037,8.66970462 C6.78287037,9.40588923 5.41692593,10.1226892 4.3355,11.2284738 C4.03735185,11.5330277 4.50246296,12.0038585 4.80103704,11.6988738 C5.84157407,10.6348738 7.16535185,9.95296615 8.4525,9.24392 C8.82475926,9.03930462 8.49296296,8.46422769 8.1207037,8.66970462" id="Fill-77" fill="#F96662"></path>
                            </g>
                            <g id="Group-82">
                                <path d="M6.05624074,0.486338462 C5.86116667,0.547507692 5.68866667,0.664676923 5.52042593,0.781846154 L5.52042593,0.781846154 C3.89168519,1.90916923 1.76205556,3.24110769 0.629518519,4.90818462 L0.629518519,4.90818462 C0.535388889,5.04646154 0.309648148,5.34670769 0.426351852,5.50867692 L0.426351852,5.50867692 C0.947259259,6.23193846 3.03898148,5.08092308 3.03898148,5.08092308 L3.03898148,5.08092308 C3.03898148,5.08092308 2.14922222,6.36978462 2.59261111,7.38123077 L2.59261111,7.38123077 C2.90481481,8.09458462 4.17961111,8.18806154 4.17961111,8.18806154 L4.17961111,8.18806154 C4.17961111,8.18806154 3.63059259,9.53852308 4.16938889,10.0640615 L4.16938889,10.0640615 C4.73075926,10.6107077 5.74744444,10.5008615 5.74744444,10.5008615 L5.74744444,10.5008615 C5.74744444,10.5008615 5.42374074,11.4403692 5.9357037,11.7259692 L5.9357037,11.7259692 C6.42338889,11.9982154 13.1219259,10.0864615 12.943037,7.29206154 L12.943037,7.29206154 C12.9281296,7.05815385 12.8122778,6.83587692 12.6623519,6.65452308 L12.6623519,6.65452308 C12.5439444,6.51064615 12.3395,6.43181538 12.2423889,6.27587692 L12.2423889,6.27587692 C12.1525185,6.12941538 12.1099259,5.59396923 11.9007963,5.28553846 L11.9007963,5.28553846 C11.7598148,5.07704615 11.3556111,4.80393846 11.1656481,4.66781538 L11.1656481,4.66781538 C10.9147778,4.48732308 10.9224444,4.22756923 10.8215,3.948 L10.8215,3.948 C10.6047037,3.35009231 10.1826111,2.82067692 9.66085185,2.51913846 L9.66085185,2.51913846 C9.47472222,2.39292308 9.64381481,1.22553846 9.33842593,0.923138462 L9.33842593,0.923138462 C8.86990741,0.460923077 7.49374074,0.507876923 6.84846296,0.448861538 L6.84846296,0.448861538 C6.72835185,0.438092308 6.60653704,0.428184615 6.48557407,0.428184615 L6.48557407,0.428184615 C6.33990741,0.428184615 6.19509259,0.4424 6.05624074,0.486338462" id="Clip-81"></path>
                                <path d="M6.33006852,6.20833231 C5.16729074,6.95356308 4.06755,7.78494769 3.02999444,8.69947077 C2.71012407,8.98119385 3.17693889,9.45030154 3.49510556,9.17030154 C4.4913463,8.29239385 5.54593889,7.49805538 6.66186481,6.78297846 C7.01879074,6.55424 6.68912407,5.97830154 6.33006852,6.20833231" id="Fill-80" fill="#F96662"></path>
                            </g>
                            <g id="Group-85">
                                <path d="M6.05624074,0.486338462 C5.86116667,0.547507692 5.68866667,0.664676923 5.52042593,0.781846154 L5.52042593,0.781846154 C3.89168519,1.90916923 1.76205556,3.24110769 0.629518519,4.90818462 L0.629518519,4.90818462 C0.535388889,5.04646154 0.309648148,5.34670769 0.426351852,5.50867692 L0.426351852,5.50867692 C0.947259259,6.23193846 3.03898148,5.08092308 3.03898148,5.08092308 L3.03898148,5.08092308 C3.03898148,5.08092308 2.14922222,6.36978462 2.59261111,7.38123077 L2.59261111,7.38123077 C2.90481481,8.09458462 4.17961111,8.18806154 4.17961111,8.18806154 L4.17961111,8.18806154 C4.17961111,8.18806154 3.63059259,9.53852308 4.16938889,10.0640615 L4.16938889,10.0640615 C4.73075926,10.6107077 5.74744444,10.5008615 5.74744444,10.5008615 L5.74744444,10.5008615 C5.74744444,10.5008615 5.42374074,11.4403692 5.9357037,11.7259692 L5.9357037,11.7259692 C6.42338889,11.9982154 13.1219259,10.0864615 12.943037,7.29206154 L12.943037,7.29206154 C12.9281296,7.05815385 12.8122778,6.83587692 12.6623519,6.65452308 L12.6623519,6.65452308 C12.5439444,6.51064615 12.3395,6.43181538 12.2423889,6.27587692 L12.2423889,6.27587692 C12.1525185,6.12941538 12.1099259,5.59396923 11.9007963,5.28553846 L11.9007963,5.28553846 C11.7598148,5.07704615 11.3556111,4.80393846 11.1656481,4.66781538 L11.1656481,4.66781538 C10.9147778,4.48732308 10.9224444,4.22756923 10.8215,3.948 L10.8215,3.948 C10.6047037,3.35009231 10.1826111,2.82067692 9.66085185,2.51913846 L9.66085185,2.51913846 C9.47472222,2.39292308 9.64381481,1.22553846 9.33842593,0.923138462 L9.33842593,0.923138462 C8.86990741,0.460923077 7.49374074,0.507876923 6.84846296,0.448861538 L6.84846296,0.448861538 C6.72835185,0.438092308 6.60653704,0.428184615 6.48557407,0.428184615 L6.48557407,0.428184615 C6.33990741,0.428184615 6.19509259,0.4424 6.05624074,0.486338462" id="Clip-84"></path>
                                <path d="M5.06562222,3.44580923 C3.76058519,4.03380923 2.61101111,4.87596308 1.64841852,5.94340923 C1.36347407,6.25873231 1.82688148,6.73085538 2.1131037,6.41380923 C3.04204815,5.38470154 4.13965926,4.58691692 5.39741852,4.02045538 C5.78415926,3.84642462 5.44938148,3.27307077 5.06562222,3.44580923" id="Fill-83" fill="#F96662"></path>
                            </g>
                        </g>
                    </g>
                </g>
                <g id="Icon" transform="translate(170.000000, 103.618221)">
                    <path d="M25.0386872,7.23543956 C21.6649026,0.662246009 13.6590564,-1.90101206 7.15702563,1.50969762 C0.655425628,4.9204073 -1.88051283,13.013875 1.49327178,19.5866331 C4.8670564,26.1598267 12.8733333,28.7235202 19.3749333,25.3128105 C20.448841,24.7492944 21.4116102,24.0564396 22.2602256,23.2656008 L27.9265641,25.0802621 L25.0709949,19.5169557 C26.9530256,15.7905202 27.090441,11.232746 25.0386872,7.23543956" id="Fill-1" fill="#FFFFFF"></path>
                    <path d="M14.4307692,19.6411877 C14.0967926,20.1571605 13.5302706,20.4677419 12.9230769,20.4677419 C12.3158833,20.4677419 11.7493613,20.1571605 11.4153846,19.6411877 L11.4153846,19.6411877 Z M12.9230769,6.96774194 C15.2545682,6.96774194 17.1446153,8.89088454 17.1446154,11.2632012 L17.1446154,11.2632012 L17.1446154,13.1041123 C17.1446154,15.1597964 18.9538462,15.6200242 18.9538462,16.7859346 C18.9538462,17.7984357 16.632,18.6268457 12.9230769,18.6268457 C9.21415385,18.6268457 6.89230769,17.7984357 6.89230769,16.7859346 C6.89230769,15.6200242 8.70153846,15.1597964 8.70153846,13.1041123 L8.70153846,13.1041123 L8.70153846,11.2632012 C8.7015385,8.89088454 10.5915856,6.96774194 12.9230769,6.96774194 Z" id="Combined-Shape" stroke="#D7DCE0" stroke-width="2.09999996" stroke-linecap="square"></path>
                    <path d="M19.9204923,8.5455 C19.9204923,10.1380645 18.6432615,11.4292742 17.0679385,11.4292742 C15.4926154,11.4292742 14.2153846,10.1380645 14.2153846,8.5455 C14.2153846,6.9525 15.4926154,5.66129032 17.0679385,5.66129032 C18.6432615,5.66129032 19.9204923,6.9525 19.9204923,8.5455" id="Fill-10" fill="#F4B132"></path>
                </g>
            </g>
        </g>
    </g>
</svg>