<?xml version="1.0" encoding="UTF-8"?>
<svg width="345px" height="345px" viewBox="0 0 345 345" version="1.1" xmlns="http://www.w3.org/2000/svg" xmlns:xlink="http://www.w3.org/1999/xlink">
    <title>Illustration/Business No Profile Photo</title>
    <g id="Illustration/Business-No-Profile-Photo" stroke="none" strokeWidth="1" fill="none" fillRule="evenodd">
        <g id="Store" transform="translate(71.000000, 74.000000)">
            <g id="rect4204" transform="translate(13.494947, 20.785171)">
                <rect id="Rectangle" fill="#FFFFFF" x="0.771139521" y="0.811317073" width="173.27505" height="173.621854" rx="5.9"></rect>
                <path d="M162.710439,1.77717073 C168.459935,1.77717073 173.120894,6.44738679 173.120894,12.2083902 L173.120894,162.881561 C173.131073,165.65478 172.038795,168.317938 170.085357,170.282535 C168.131919,172.247132 165.478138,173.351415 162.710439,173.351415 L12.3382323,173.351415 C6.63360732,173.351415 1.99123351,168.751787 1.9278488,163.036098 L1.9278488,12.3629268 C1.9278488,9.58968858 3.02992612,6.93059537 4.99059885,4.97324787 C6.95127158,3.01590037 9.60910949,1.92143606 12.3767893,1.93170732 L162.748996,1.93170732 L162.710439,1.77717073 Z M162.748996,0 L12.3767893,0 C5.55630649,0 0.02124761,5.52882624 0,12.3629268 L0,163.036098 C0.02124761,169.870198 5.55630649,175.399024 12.3767893,175.399024 L162.748996,175.399024 C169.563213,175.399024 175.087228,169.863954 175.087228,163.036098 L175.087228,12.3629268 C175.087228,5.53507088 169.563213,0 162.748996,0 Z" id="Shape" fill="#4D4D4D" fill-rule="nonzero"></path>
            </g>
            <path d="M102.908574,194.793366 C102.376213,194.793366 101.94465,194.360938 101.94465,193.827512 L101.94465,125.058732 C101.94465,122.668982 103.878055,120.731707 106.263031,120.731707 L159.587329,120.731707 C161.957234,120.75291 163.867153,122.683989 163.867153,125.058732 L163.867153,193.827512 C163.867153,194.360938 163.43559,194.793366 162.903229,194.793366 L102.908574,194.793366 Z" id="Path" fill="#CCCCCC"></path>
            <path d="M159.587329,121.697561 C160.473482,121.697561 161.32279,122.052851 161.945762,122.684329 C162.568734,123.315806 162.913533,124.170865 162.903453,125.058732 L162.903453,193.827512 L102.908574,193.827512 L102.908574,125.058732 C102.908574,123.202408 104.410416,121.697561 106.263031,121.697561 L159.587329,121.697561 L159.587329,121.697561 Z M159.587329,119.765854 L106.263031,119.765854 C103.345694,119.765854 100.980725,122.135556 100.980725,125.058732 L100.980725,193.827512 C100.980725,194.894365 101.843853,195.75922 102.908574,195.75922 L162.903229,195.75922 C163.96795,195.75922 164.83122,194.894365 164.83122,193.827512 L164.83122,125.058732 C164.841353,123.658538 164.293427,122.312154 163.308918,121.31842 C162.324408,120.324687 160.984764,119.765854 159.587329,119.765854 Z" id="Shape" fill="#4D4D4D" fill-rule="nonzero"></path>
            <path d="M23.1341906,183.821268 L23.1341906,33.1480976 C23.1238957,30.3784167 24.2173946,27.7191975 26.1719563,25.7607237 C28.1265181,23.80225 30.7804256,22.7065626 33.5445741,22.7168059 L25.678951,22.7168059 C20.0492873,22.7998463 15.5055979,27.3526297 15.4227181,32.993561 L15.4227181,183.666732 C15.4010409,189.382956 19.9747289,194.051942 25.678951,194.13774 L33.6602451,194.13774 C30.8961605,194.177848 28.2300035,193.111764 26.2536865,191.175014 C24.2773695,189.238264 23.1544369,186.591118 23.1341906,183.821268 L23.1341906,183.821268 Z" id="Path" fill="#E0E0E0"></path>
            <g id="path4202" transform="translate(0.000005, 0.000000)">
                <path d="M0.963924401,71.9367805 L15.4227904,11.8220488 C16.6180567,6.02692683 20.0110706,0.965853659 25.9488449,0.965853659 L175.896925,0.965853659 C181.834699,0.965853659 185.227713,5.91102439 186.615764,11.7061463 L200.881845,71.820878" id="Path" fill="#FF7799"></path>
                <path d="M199.956478,72.1299512 L185.690397,12.0538537 C184.957814,9.04039024 182.567282,2.04760976 175.896925,2.04760976 L25.9488449,2.04760976 C19.278488,2.04760976 16.8879555,9.04039024 16.1939299,12.0538537 L1.88929183,72.1299512 L0,71.7049756 L14.2660811,11.5902439 C16.0011451,4.28839024 20.2424124,0 25.833174,0 L175.896925,0 C181.5648,0 185.806068,4.1724878 187.464018,11.5902439 L201.768656,71.7049756 L199.956478,72.1299512 Z" id="Path" fill="#4D4D4D"></path>
            </g>
            <g id="path4214" transform="translate(49.969846, 0.077263)">
                <polyline id="Path" fill="#CCCCCC" points="0.963924401 71.8595172 8.13552195 0.888590414 51.3193351 0.888590414 51.3193351 71.8595172"></polyline>
                <path d="M1.9278488,71.9367855 L0,71.7436148 L7.17159754,0.888590414 C7.21188672,0.385552643 7.63187751,-0.00161223212 8.13552195,0 L51.3193351,0 C51.8516959,0 52.2832595,0.432432461 52.2832595,0.965858707 L52.2832595,71.8595172 L50.2782968,71.8595172 L50.2782968,1.97034651 L8.98377542,1.97034651 L1.9278488,71.9367855 Z" id="Path" fill="#4D4D4D"></path>
            </g>
            <g id="path4216" transform="translate(143.158600, 0.115640)">
                <path d="M8.10042215,71.8211406 L0.967381579,0.850213817 L32.7383298,0.850213817 C38.6761042,0.850213817 42.069118,5.79538455 43.4571692,11.5905065 L57.7232503,71.7052382" id="Path" fill="#CCCCCC"></path>
                <path d="M56.7978829,72.0143114 L42.5318018,11.9382138 C41.7992192,8.9247504 39.4086867,1.93196991 32.7383298,1.93196991 L1.892749,1.93196991 L8.91011864,71.7052382 L6.98226984,71.8984089 L0.00345717785,1.08201869 C-0.0201540572,0.797741425 0.0779747507,0.516812257 0.27335601,0.309335768 C0.446736767,0.107240326 0.701489247,-0.00620961057 0.967381579,0 L32.7383298,0 C38.4062053,0 42.6474727,4.1727504 44.3054227,11.5905065 L58.6100608,71.7052382 L56.7978829,72.0143114 Z" id="Path" fill="#4D4D4D"></path>
            </g>
            <g id="path4208" transform="translate(99.978239, 71.666341)">
                <path d="M50.9337703,0.965853659 C50.9523118,10.0042753 46.201317,18.3792355 38.4413101,22.9873171 C30.7351362,27.5489287 21.1625635,27.5489287 13.4563896,22.9873171 C5.68483582,18.3906077 0.929728841,10.0083985 0.963746116,0.965853659 L51.0879982,0.965853659 L50.9337703,0.965853659 Z" id="Path" fill="#FF7799"></path>
                <path d="M25.9488498,27.35304 C21.3822058,27.3632236 16.8959411,26.1493744 12.9551489,23.8372683 C4.91736873,19.0324654 -0.00403406153,10.3440676 2.4811734e-06,0.965853659 C2.4811734e-06,0.432427412 0.43156862,0 0.963929367,0 L51.0879982,0 C51.620359,0 52.0519226,0.432427412 52.0519226,0.965853659 C52.0074197,10.4012961 46.9741252,19.1058853 38.8268798,23.8372683 C34.9228505,26.1364124 30.4772495,27.3500633 25.9488498,27.35304 L25.9488498,27.35304 Z M1.92785377,1.93170732 C2.30778967,10.2200729 6.81120618,17.7649718 13.9190733,22.0214634 C21.3447458,26.3450403 30.5143969,26.3450403 37.9400694,22.0214634 C45.1079228,17.7507767 49.623402,10.127475 49.9312889,1.77717073 L1.92785377,1.93170732 Z" id="Shape" fill="#4D4D4D" fill-rule="nonzero"></path>
            </g>
            <g id="path4212" transform="translate(149.948080, 71.666341)">
                <path d="M50.9337703,0.965853659 C50.9679709,10.0083985 46.2128639,18.3906077 38.4413101,22.9873171 C30.7351362,27.5489287 21.1625635,27.5489287 13.4563896,22.9873171 C5.68483582,18.3906077 0.929728841,10.0083985 0.963746116,0.965853659 L51.0879982,0.965853659 L50.9337703,0.965853659 Z" id="Path" fill="#CCCCCC"></path>
                <path d="M25.9488498,27.3531549 C21.3826979,27.3594797 16.8973966,26.1458912 12.9551489,23.8372683 C4.91736873,19.0324654 -0.00403406153,10.3440676 2.4811734e-06,0.965853659 C2.4811734e-06,0.432427412 0.43156862,0 0.963929367,0 L51.0879982,0 C51.620359,0 52.0519226,0.432427412 52.0519226,0.965853659 C52.0317262,10.3676021 47.0633222,19.0613545 38.9811077,23.8372683 C35.0290369,26.1560388 30.528567,27.3701289 25.9488498,27.3531549 L25.9488498,27.3531549 Z M1.92785377,1.93170732 C2.32296246,10.2256042 6.84003725,17.7691301 13.9576303,22.0214634 C21.3833028,26.3450403 30.5529539,26.3450403 37.9786264,22.0214634 C45.1309473,17.7352457 49.6409129,10.1212527 49.9698459,1.77717073 L1.92785377,1.93170732 Z" id="Shape" fill="#4D4D4D" fill-rule="nonzero"></path>
            </g>
            <g id="path4206" transform="translate(0.000000, 71.666341)">
                <path d="M50.9337703,0.965853659 C50.9921423,9.98479955 46.2840999,18.3616072 38.556981,22.9873171 C30.8508071,27.5489287 21.2782344,27.5489287 13.5720605,22.9873171 C5.81205362,18.3792355 1.06105885,10.0042753 1.07954622,0.965853659 L51.2036692,0.965853659 L50.9337703,0.965853659 Z" id="Path" fill="#FF7799"></path>
                <path d="M25.9488498,27.3529756 C21.3826979,27.3594797 16.8973966,26.1458912 12.9551489,23.8372683 C4.91736873,19.0324654 -0.00403406153,10.3440676 2.4811734e-06,0.965853659 C2.4811734e-06,0.432427412 0.43156862,0 0.963929367,0 L51.0879982,0 C51.620359,0 52.0519251,0.432427412 52.0519251,0.965853659 C52.0559617,10.3440676 47.1345589,19.0324654 39.0967787,23.8372683 C35.1108997,26.1761584 30.567764,27.390976 25.9488498,27.3529756 Z M1.92785377,1.93170732 C2.32296246,10.2256042 6.84003725,17.7691301 13.9576303,22.0214634 C21.3833028,26.3450403 30.5529539,26.3450403 37.9786264,22.0214634 C45.1456702,17.8020851 49.7109833,10.2506114 50.1240738,1.93170732 L1.92785377,1.93170732 Z" id="Shape" fill="#4D4D4D" fill-rule="nonzero"></path>
            </g>
            <g id="path4210" transform="translate(50.123678, 71.666341)">
                <path d="M50.8184902,0.965853659 C50.8370316,10.0042753 46.0860369,18.3792355 38.3260299,22.9873171 C30.6056633,27.5475266 21.0229191,27.5475266 13.3025525,22.9873171 C5.54254557,18.3792355 0.791550802,10.0042753 0.810038175,0.965853659 L50.9341611,0.965853659 L50.8184902,0.965853659 Z" id="Path" fill="#CCCCCC"></path>
                <path d="M25.8335697,27.3529756 C21.2669256,27.3632236 16.780661,26.1493744 12.8398688,23.8372683 C4.840779,19.0092997 -0.0356966129,10.3226584 0.000196785126,0.965853659 C0.000196785126,0.432427412 0.431959405,0 0.964320152,0 L51.088389,0 C51.6207498,0 52.0523155,0.432427412 52.0523155,0.965853659 C52.0560059,10.3539534 47.1169172,19.0477003 39.0586125,23.8372683 C35.0509721,26.1914908 30.4788389,27.4069335 25.8335697,27.3529756 L25.8335697,27.3529756 Z M1.81257362,1.93170732 C2.17178886,10.2263097 6.68063965,17.7803131 13.8037932,22.0214634 C21.2294657,26.3450403 30.3991168,26.3450403 37.8247893,22.0214634 C44.9926426,17.7507767 49.5081219,10.127475 49.8160088,1.77717073 L1.81257362,1.93170732 Z" id="Shape" fill="#4D4D4D" fill-rule="nonzero"></path>
            </g>
            <path d="M114.398553,121.697561 L106.378702,121.697561 C104.462203,121.697561 102.908574,123.2543 102.908574,125.174634 L102.908574,193.827512 L110.928425,193.827512 L110.928425,125.174634 C110.928425,123.2543 112.482054,121.697561 114.398553,121.697561 Z" id="Path" fill="#AAAAAA"></path>
            <path d="M33.9687009,0.965853659 L25.9488498,0.965853659 C20.0110755,0.965853659 16.6180616,6.02692683 15.4227954,11.8220488 L0.963929367,71.9367805 L8.94522341,71.9367805 L23.1341906,11.8220488 C24.6379127,6.02692683 28.0309266,0.965853659 33.9687009,0.965853659 Z" id="Path" fill="#EF608F"></path>
            <g id="path4202-2" transform="translate(0.000005, 0.000000)" fill="#4D4D4D">
                <path d="M199.956478,72.1299512 L185.690397,12.0538537 C184.957814,9.04039024 182.567282,2.04760976 175.896925,2.04760976 L25.9488449,2.04760976 C19.278488,2.04760976 16.8879555,9.04039024 16.1939299,12.0538537 L1.88929183,72.1299512 L0,71.7049756 L14.2660811,11.5902439 C16.0011451,4.28839024 20.2424124,0 25.833174,0 L175.896925,0 C181.5648,0 185.806068,4.1724878 187.464018,11.5902439 L201.768656,71.7049756 L199.956478,72.1299512 Z" id="Path"></path>
            </g>
            <path d="M21.4762406,94.6536585 C13.6898669,90.0666566 8.91905176,81.6826341 8.94522341,72.6321951 L0.963875294,72.6321951 C0.945387921,81.6706168 5.69638269,90.045577 13.4563896,94.6536585 C18.4516234,97.5183049 24.2890686,98.543269 29.9587754,97.5512195 C26.9784605,97.1122446 24.1035466,96.1301987 21.4762406,94.6536585 Z" id="Path" fill="#EF608F"></path>
            <g id="path4206-2" transform="translate(0.000000, 71.666341)" fill="#4D4D4D" fill-rule="nonzero">
                <path d="M25.9488498,27.3529756 C21.3826979,27.3594797 16.8973966,26.1458912 12.9551489,23.8372683 C4.91736873,19.0324654 -0.00403406153,10.3440676 2.4811734e-06,0.965853659 C2.4811734e-06,0.432427412 0.43156862,0 0.963929367,0 L51.0879982,0 C51.620359,0 52.0519251,0.432427412 52.0519251,0.965853659 C52.0559617,10.3440676 47.1345589,19.0324654 39.0967787,23.8372683 C35.1108997,26.1761584 30.567764,27.390976 25.9488498,27.3529756 Z M1.92785377,1.93170732 C2.32296246,10.2256042 6.84003725,17.7691301 13.9576303,22.0214634 C21.3833028,26.3450403 30.5529539,26.3450403 37.9786264,22.0214634 C45.1456702,17.8020851 49.7109833,10.2506114 50.1240738,1.93170732 L1.92785377,1.93170732 Z" id="Shape"></path>
            </g>
        </g>
    </g>
</svg>