<?xml version="1.0" encoding="UTF-8"?>
<svg width="345px" height="345px" viewBox="0 0 345 345" version="1.1" xmlns="http://www.w3.org/2000/svg" xmlns:xlink="http://www.w3.org/1999/xlink">
    <title>Illustration/Celebrate</title>
    <g id="Illustration/Celebrate" stroke="none" strokeWidth="1" fill="none" fillRule="evenodd">
        <g id="Celebrate-Illustration" transform="translate(21.000000, 103.000000)">
            <g id="Group-15" transform="translate(35.000000, 2.000000)">
                <path d="M149.831717,29.7937008 C149.831717,29.7937008 146.858183,27.5836734 145.54345,24.8524664 C145.54345,24.8524664 142.80175,26.4173062 142.013517,26.5035914 C142.013517,26.5035914 142.700783,28.6915055 145.751017,31.0034273 C145.751017,31.0034273 149.066017,29.790232 149.831717,29.7937008" id="Fill-1" fill="#F0F3FA"></path>
                <path d="M226.394783,68.8099406 L227.47465,64.6994719 C227.47465,64.6994719 230.879783,66.0518508 233.496683,64.5980109 L233.80955,69.1845656 C233.80955,69.1845656 230.31255,71.3286867 226.394783,68.8099406" id="Fill-3" fill="#E1E6ED"></path>
                <path d="M0.369373333,81.5281559 L3.93050667,79.6090699 C3.93050667,79.6090699 5.20277333,82.8592887 7.91457333,83.7377496 L4.92717333,86.9363707 C4.92717333,86.9363707 1.16280667,85.8935777 0.369373333,81.5281559" id="Fill-5" fill="#E1E6ED"></path>
                <path d="M69.7289233,22.4222168 L66.34329,20.2082871 C66.34329,20.2082871 68.5901233,17.536916 68.0662233,14.734166 L72.3016233,15.8328926 C72.3016233,15.8328926 73.1834567,19.6402793 69.7289233,22.4222168" id="Fill-7" fill="#E1E6ED"></path>
                <path d="M178.711217,10.9721766 L178.711217,10.9721766 L202.17795,0.389453906 L192.671483,24.3238289 C185.77455,23.0555672 180.288983,17.8095164 178.711217,10.9721766" id="Fill-9" fill="#9560D9"></path>
                <path d="M192.671613,24.3238289 L192.671613,24.3238289 L202.177647,0.389453906 L202.02598,0.457528125 L186.186347,21.7062234 C188.117713,22.9783875 190.308213,23.889368 192.671613,24.3238289" id="Fill-11" fill="#9560D9" opacity="0.139601935" style="mix-blend-mode: multiply;"></path>
                <path d="M191.488397,68.4377437 C194.761797,72.2650758 194.441563,77.9984859 190.80113,81.4785094 C180.998697,90.8497711 159.839897,107.621611 148.359163,110.42306 C138.26033,112.887173 102.388563,97.6160016 101.211197,97.0675055 C100.46543,96.7206305 100.975463,93.3646148 101.44953,90.9507984 C101.733363,89.5056305 103.005197,88.4702086 104.476797,88.4832164 C111.678797,88.5456539 132.65993,88.9142086 142.76223,91.0808766 C144.048797,91.3566422 145.365263,90.7769273 146.032163,89.6422125 C148.850563,84.8453648 158.873997,73.6308961 172.01223,65.5378687 C181.701997,59.56815 187.152463,63.367732 191.488397,68.4377437" id="Fill-13" fill="#F4B132"></path>
            </g>
            <g id="Group-25" transform="translate(97.000000, 65.000000)">
                <path d="M66.6542967,2.15007642 C69.6345934,4.24465366 74.4870165,6.97221463 73.8137802,8.03652358 C73.140544,9.10126341 67.4499396,6.13067805 67.1226538,5.98632846 C66.7953681,5.84197886 70.3590495,9.62307642 70.5765165,10.8860276 C70.7939835,12.1494098 64.3606923,8.13993821 63.9978132,7.2018813 C63.6345,6.2629626 67.281956,12.5613447 66.1907143,13.2464667 C65.0994725,13.9320195 61.6152253,9.45588943 61.6152253,9.45588943 L60.2891538,6.73048293 L62.3635549,2.97825528 L66.8904286,2.06001951" id="Fill-19" fill="#DB7963"></path>
                <path d="M60.2980088,11.979422 C61.3988,12.2965602 63.0308879,11.9604626 63.9111736,10.6686415 C66.6197451,6.69277967 70.2802231,6.33427561 69.7211462,5.61295854 C68.3538385,3.84715366 62.2699703,7.20425122 61.9969429,7.56318618 C61.7230473,7.92169024 64.1533824,4.54994228 64.7445802,4.14748699 C65.335344,3.7454626 78.4250363,6.3653 78.9841132,4.59475528 C79.0982725,4.23280407 64.1959209,-0.667326016 61.7881571,0.626649593 C59.3803934,1.9206252 54.3239593,9.25272276 51.1192505,12.8407797 C50.1686462,13.9055195 51.7772945,19.3429748 51.7772945,19.3429748 L56.2160527,18.7914301 L60.2980088,11.979422 Z" id="Fill-21" fill="#EA8B71"></path>
                <path d="M6.5780956,3.06279675 C10.9634637,7.25496748 21.1123593,17.6688211 32.4692604,34.1819837 C32.4692604,34.1819837 43.2636121,16.8221138 54.9491011,6.99212195 C54.9491011,6.99212195 61.0156066,7.38337398 62.1272495,12.9462195 C62.1272495,12.9462195 48.1177714,47.3733821 36.2126451,52.6109024 C28.9190352,55.8202033 1.33978791,25.5606504 0.185172527,22.8404146 C-0.683827473,20.7928049 2.07683187,9.42452033 3.49535934,3.92717073 C3.84825495,2.55994309 5.55413407,2.08380488 6.5780956,3.06279675" id="Fill-23" fill="#2E3A5B"></path>
            </g>
            <g id="Group-37" transform="translate(83.000000, 40.000000)">
                <path d="M45.6065528,26.8262387 C46.1160468,25.5517356 47.8111857,25.29433 48.6713086,26.3654136 C52.1312793,30.6717743 59.1339,39.6459864 59.1909551,41.805861 C59.2659269,44.6753285 47.1129582,82.4642805 39.3930635,82.524167 C26.7933677,82.6214879 0.607453641,57.6937449 0.607453641,57.6937449 C-0.647884177,52.3219152 4.54315414,49.5608517 4.54315414,49.5608517 C18.7951342,53.6193084 35.2872431,64.7045916 35.2872431,64.7045916 C38.663236,45.552926 43.425728,32.2866056 45.6065528,26.8262387 Z M95.5368353,26.687041 C97.718093,32.1474079 102.480152,45.4137283 105.856145,64.565394 L105.861074,64.5620865 L105.900168,64.5359527 C106.843655,63.9066011 122.775813,53.358357 136.600234,49.421654 C136.600234,49.421654 141.791272,52.1827175 140.535934,57.5545472 C140.535934,57.5545472 114.35002,82.4822902 101.750325,82.3849693 C94.03043,82.3246509 81.8774612,44.5361308 81.9524331,41.6666633 C82.0094882,39.5067887 89.0121088,30.5321447 92.4720796,26.2262159 C93.3326353,25.1551324 95.0273413,25.412106 95.5368353,26.687041 Z" id="Fill-123" fill="#9560D9"></path>
                <path d="M93.0799228,56.0909201 C100.03536,43.5998396 94.4707505,25.5564 94.4707505,25.5564 L71.090733,25.5564 L70.8219175,25.5564 L46.9787236,25.7170625 C46.9787236,25.7170625 41.8772904,43.5998396 48.8331606,56.0909201 C53.6047429,64.6608845 48.9387821,82.3739294 45.5381152,92.6528768 L96.8026487,92.6528768 C93.2370564,82.3739294 88.3083405,64.6608845 93.0799228,56.0909201" id="Fill-33" fill="#9560D9"></path>
                <path d="M139.325659,0.0702250774 C139.325659,0.0702250774 138.454714,13.7926198 145.223149,18.589174 C151.991585,23.3852963 141.120359,35.4682421 141.120359,35.4682421 L123.735229,38.7380703 L123.873749,36.5626477 L124.394065,28.3628118 L128.009438,25.3745749 L125.371497,12.9659851 L139.325659,0.0702250774 Z" id="Fill-35" fill="#FCD1C3"></path>
            </g>
            <g id="Group-40" opacity="0.289434524" transform="translate(196.000000, 40.000000)">
                <path d="M12.9821429,13.0095333 L15.5942857,25.4592 L12.0144286,28.4578667 L11.4992857,36.6851333 L11.3621429,38.8678333 L28.5744286,35.5870667 C28.5744286,35.5870667 39.3375714,23.4637 32.6364286,18.6515333 L32.6364286,18.6515333 C25.9352857,13.8389333 26.7975714,0.0702 26.7975714,0.0702 L26.7975714,0.0702 L12.9821429,13.0095333 Z" id="Clip-39"></path>
                <path d="M10.5088143,26.72007 C13.3665286,26.37297 23.2459571,25.3832367 24.1939571,10.39207 C25.1419571,-4.59866333 0.1961,21.0022367 0.1961,21.0022367 L10.5088143,26.72007 Z" id="Fill-38" fill="#F96662"></path>
            </g>
            <path d="M200.169463,22.155343 C195.552109,24.6748786 193.283064,29.0868691 194.200793,41.0225326 C195.136518,53.197125 201.998067,63.0648027 204.747828,63 C212.857438,62.8081913 223.206102,53.3933572 221.885206,46.244035 C220.045462,36.2883762 219.348382,25.5973857 215.448246,22.7423146 C211.548538,19.8868122 206.662978,18.6128122 200.169463,22.155343" id="Fill-41" fill="#FCD1C3"></path>
            <g id="Group-45" opacity="0.154599144" transform="translate(186.000000, 20.000000)">
                <path d="M14.4766667,2.56811881 C9.74131818,5.11314851 7.41384848,9.56978218 8.3550303,21.6262178 L8.3550303,21.6262178 C9.31510606,33.9235644 16.3515606,43.8915248 19.1715909,43.8260663 L19.1715909,43.8260663 C27.4884394,43.6323168 38.1015606,34.1222178 36.7469091,26.9009901 L36.7469091,26.9009901 C34.8601515,16.8441584 34.145697,6.04542574 30.1458939,3.1610297 L30.1458939,3.1610297 C27.8654394,1.51647525 25.2554394,0.391207698 22.1994545,0.391207698 L22.1994545,0.391207698 C19.8957121,0.390772277 17.3388788,1.03029703 14.4766667,2.56811881 L14.4766667,2.56811881 Z" id="Clip-44"></path>
                <path d="M1.82739394,14.0110376 C1.82739394,14.0110376 19.4690606,23.106404 27.2120606,10.5655327 C34.2234697,-0.790388119 0.180545455,0.391077228 0.180545455,0.391077228 L1.82739394,14.0110376 Z" id="Fill-43" fill="#F96662"></path>
            </g>
            <g id="Group-66" transform="translate(37.000000, 12.000000)">
                <path d="M189.450832,12.2590028 C188.716048,11.2786612 187.687177,10.3651808 186.4475,9.55112384 C187.017023,7.18666833 184.021065,4.67937295 182.371054,3.50105267 C180.008814,1.8130242 177.234939,0.695486833 174.364771,0.268703915 C171.396573,-0.172840569 168.224509,-0.0395523132 165.763373,1.84341566 C164.709344,2.64922349 163.751175,3.62609181 162.537958,4.19962206 C161.072293,4.89254733 159.526818,4.64160071 157.980475,4.44405623 C156.493556,4.25432669 155.031362,4.23609181 153.71144,5.04320214 C152.609698,5.71615587 151.769511,6.7850669 151.287174,7.97554377 C150.153333,10.7698214 149.191261,20.3466043 161.587163,22.5699566 C161.593669,22.5712591 161.603212,22.5690883 161.609718,22.5699566 C165.417235,23.3783694 171.050869,22.3246541 175.98572,18.3446754 C175.98572,18.3446754 174.721319,31.4199495 181.754252,31.3856505 C183.464121,31.3769673 181.929056,37.4986754 186.200259,37.240348 C186.200259,37.240348 186.224983,35.2297359 188.111391,32.1311096 C191.234007,27.0036363 195.349491,20.1238783 189.450832,12.2590028" id="Fill-46" fill="#2E3A5B"></path>
                <path d="M179.240631,34.5675495 C181.00125,35.0242897 185.936968,34.0990868 186.656571,29.1409374 C187.376174,24.1827879 181.210321,24.0538413 179.67005,28.553948 C178.129346,33.054489 179.240631,34.5675495 179.240631,34.5675495" id="Fill-48" fill="#FCD1C3"></path>
                <path d="M159.044046,121.795856 L215.635429,121.795856 C217.262885,102.463849 218.112615,63.0726107 200.620938,45.722995 C200.184578,45.2901338 196.455571,46.3712014 191.807433,47.9528598 C189.873745,55.9115146 182.76317,65.439237 175.51119,64.4167815 C169.579132,63.5797139 172.342163,57.9351516 174.127939,54.477906 C172.54386,55.0922477 171.574413,55.4751801 171.574413,55.4751801 C167.331838,56.8106676 160.676273,62.0536285 162.263389,74.9187673 C163.763321,87.0718776 161.210228,116.958838 159.044046,121.795856" id="Fill-50" fill="#F4B132"></path>
                <path d="M215.63595,121.795856 C216.580672,110.566212 217.262104,92.5653509 214.237518,76.0449879 C211.717825,74.7607317 208.760471,73.6266961 205.293453,72.6190021 C205.919797,92.5297495 208.430382,109.691806 211.572516,121.795856 L215.63595,121.795856 Z" id="Fill-52" fill="#F4B132" style="mix-blend-mode: multiply;" opacity="0.354933966"></path>
                <path d="M217.530643,92.6568726 C218.697449,93.2681751 219.342011,94.5572071 219.129904,95.8579616 C218.083249,102.276204 217.957893,112.95446 218.081948,121.795769 L232.374668,121.795769 C236.007815,110.133698 239.912494,95.1476698 238.179202,89.3016555 C234.813249,77.9513139 217.010569,57.606837 207.162988,48.2601609 C203.505984,44.7894562 197.761743,44.7521181 194.098667,48.2171786 C189.247097,52.806289 185.72022,58.4482463 192.163244,67.8500612 C200.898672,80.5975416 212.598394,90.0740327 217.530643,92.6568726" id="Fill-54" fill="#F4B132"></path>
                <path d="M53.4812165,11.4665673 C53.4812165,11.4665673 58.148006,51.1869018 43.0346176,47.3137274 C27.921663,43.440553 21.7041929,29.3710441 27.921663,17.5531082 C34.1386993,5.73473808 48.5207737,9.32006192 53.4812165,11.4665673" id="Fill-56" fill="#F4B132"></path>
                <path d="M39.692478,56.1909423 C40.329233,54.1633979 45.2558428,40.3652413 44.9036323,37.8462235 C44.5518555,35.3267715 55.0609154,44.9070278 55.0609154,44.9070278 L53.2595234,55.3751488 L56.5352548,55.4055402 C61.787616,63.2000811 47.3526232,78.5091274 47.3526232,78.5091274 L39.692478,56.1909423 Z" id="Fill-58" fill="#FCD1C3"></path>
                <path d="M29.2098773,108.247344 C28.74142,110.095579 26.8194436,116.425685 25.1698664,121.795856 L70.8691822,121.795856 C69.706714,113.218952 68.1629735,99.4442406 69.7201604,96.1828028 C69.7201604,96.1828028 74.3028011,89.0725039 74.4919191,87.301116 C75.2787539,79.930753 68.7689318,77.1968242 68.0215688,73.0418776 C67.2733383,68.8873651 68.4995688,56.9426534 65.2017158,55.7447957 C63.9828592,55.3023829 62.2569408,55.2346534 56.5352548,55.4057139 C56.2663256,57.9716214 54.8674599,67.996027 49.4858392,66.7716854 C44.2868301,65.5881552 40.69142,58.4105609 39.692478,56.191116 C36.6852421,56.3665181 31.5027158,56.5618918 31.5027158,56.5618918 C25.9983419,56.9669665 18.2427702,71.9399701 22.6072312,83.1409594 C26.9712584,94.3419488 30.068282,104.860433 29.2098773,108.247344" id="Fill-60" fill="#2E3A5B"></path>
                <path d="M29.2098773,108.247344 C28.74142,110.095579 26.8194436,116.425685 25.1698664,121.795856 L34.2496976,121.795856 C34.6340062,119.747906 35.0031332,117.554945 35.3666214,115.217408 C37.7358011,99.970447 27.4440534,88.7950733 24.3223056,74.2905324 L21.4044236,74.0634648 C21.1680261,77.1308313 21.4846686,80.2602833 22.6072312,83.1409594 C26.9712584,94.3419488 30.068282,104.860433 29.2098773,108.247344" id="Fill-62" fill="#2E3A5B" opacity="0.334472656" style="mix-blend-mode: multiply;"></path>
                <path d="M20.4860303,121.795856 C18.3207163,114.916098 16.4516583,109.667059 16.4516583,109.667059 C16.4516583,109.667059 32.8641483,87.3315075 37.1171338,75.9572868 C37.1171338,75.9572868 44.1691519,57.7093865 30.7131483,57.0442477 C22.2817835,56.6278847 1.62932069,101.566867 0.142836116,106.677408 C-0.394588566,108.523472 1.57163103,114.68165 4.30820272,121.795856 L20.4860303,121.795856 Z" id="Fill-64" fill="#2E3A5B"></path>
            </g>
            <g id="Group-69" transform="translate(77.000000, 41.000000)">
                <path d="M5.367,8.50494737 C5.715,11.0089684 0.847285714,24.7249789 0.218142857,26.7404526 L0.218142857,26.7404526 L7.78671429,48.9262 C7.78671429,48.9262 22.0491429,33.7078632 16.8591429,25.9601579 L16.8591429,25.9601579 L13.6225714,25.9295158 L15.4028571,15.5237158 C15.4028571,15.5237158 7.29128571,8.08458947 5.64728571,8.08545263 L5.64728571,8.08545263 C5.43128571,8.08545263 5.32671429,8.21406316 5.367,8.50494737 L5.367,8.50494737 Z" id="Clip-68"></path>
                <path d="M18.9370286,0.598075789 C18.9370286,0.598075789 -1.69654286,18.1905284 13.6231714,25.9296021 L18.0271714,7.37386526 L18.9370286,0.598075789 Z" id="Fill-67" fill="#DB7963" opacity="0.296363467"></path>
            </g>
            <path d="M87.6128438,22.1242889 C92.8114826,22.8635329 98.8328266,28.7140586 101.346502,40.3875525 C103.112384,48.5883492 101.017508,62.4305837 98.4197217,63.3321115 C90.7591001,65.9903279 78.7895706,60.327019 77.5449988,53.1812853 C75.8115351,43.2294863 71.140777,34.8672807 73.801646,30.8329331 C76.4625149,26.799023 80.3022443,21.0840982 87.6128438,22.1242889" id="Fill-70" fill="#FCD1C3"></path>
            <g id="Group-74" transform="translate(72.000000, 19.000000)">
                <path d="M1.18616864,11.8550876 C-1.41954142,15.8366824 3.1539645,24.0895445 4.85192308,33.9112146 L4.85192308,33.9112146 C6.07069527,40.9635113 17.7921006,46.553199 25.2939201,43.9293095 L25.2939201,43.9293095 C27.837855,43.0400017 29.8893047,29.3783354 28.1600296,21.2847715 L28.1600296,21.2847715 C25.6984615,9.76391926 19.8019379,3.98989449 14.7110651,3.26031678 L14.7110651,3.26031678 C14.1302071,3.17699814 13.5725148,3.13771319 13.0354142,3.13771319 L13.0354142,3.13771319 C6.94970414,3.13771319 3.58081361,8.19683814 1.18616864,11.8550876" id="Clip-73"></path>
                <path d="M6.00814793,26.2223721 C6.00814793,26.2223721 23.5810325,18.6537589 20.5158698,3.13749734 C18.181713,-8.67691282 6.00814793,26.2223721 6.00814793,26.2223721" id="Fill-72" fill="#DB7963" opacity="0.126999628"></path>
            </g>
            <g id="Group-89" transform="translate(0.000000, 3.000000)">
                <path d="M92.211709,20.9495314 C92.211709,20.9495314 82.6183319,16.4468568 77.5394852,19.2610284 C72.4606384,22.074768 71.3320058,25.4522059 71.3320058,25.4522059 C71.3320058,25.4522059 67.0253586,39.111845 71.6988331,42.4758923 L71.4948477,42.6279396 C71.4948477,42.6279396 79.7270229,55.5770166 79.7967504,55.2828568 C81.1064146,49.7305373 79.7560399,45.1293775 78.3913732,42.241774 C91.1779231,37.2894367 92.211709,20.9495314 92.211709,20.9495314" id="Fill-75" fill="#F4B132"></path>
                <path d="M80.2372462,45.9002834 C78.4412219,46.3642006 73.4052511,45.4238396 72.6711635,40.383816 C71.9370759,35.3433604 78.2277085,35.2124787 79.7993922,39.7872893 C81.3710759,44.361668 80.2372462,45.9002834 80.2372462,45.9002834" id="Fill-77" fill="#FCD1C3"></path>
                <path d="M66.0015338,25.7347462 L66.0015338,25.7347462 L66.3363124,0.0789177515 L83.9855971,18.746184 C79.9236457,24.4427757 72.8569158,27.1882669 66.0015338,25.7347462" id="Fill-79" fill="#9560D9"></path>
                <path d="M66.0015338,25.7347462 C68.027962,26.1641071 70.0717139,26.2245805 72.0518015,25.9524503 L66.3306822,0.522101183 L66.0015338,25.7347462 Z" id="Fill-81" fill="#9560D9" style="mix-blend-mode: multiply;" opacity="0.334240141"></path>
                <path d="M43.6798574,33.3318864 C43.6798574,51.9058509 37.0774,53.7520166 32.2493124,54.6202414 C25.6247674,55.8115669 18.7451324,55.9631822 12.4371762,58.3073893 C6.12965304,60.6515964 0.265614112,65.9784367 0.000129927007,72.6866615 C1.45098151,70.3536852 6.00665547,67.7071112 8.69181363,67.1028095 C26.185619,63.1629692 28.4433173,74.9824899 41.9869085,71.6050521 C52.3334292,69.0254308 57.7881981,59.222697 57.7881981,49.6545136 C57.7881981,40.1178627 55.5045144,34.0938509 61.001726,32.7189456 C63.2932054,32.1457444 65.8142224,33.8610284 68.0147528,32.8191586 C70.1754389,31.7962947 69.9632248,27.3601408 68.8688063,25.7882651 C56.0952491,7.44150769 43.6798574,19.2610284 43.6798574,33.3318864" id="Fill-83" fill="#F4B132"></path>
                <path d="M172.354542,65.9767953 L134.728546,65.9767953 L134.728546,34.6477006 C134.728546,24.2847243 143.151281,15.8836769 153.541544,15.8836769 C163.931807,15.8836769 172.354542,24.2847243 172.354542,34.6477006 L172.354542,65.9767953 Z" id="Fill-85" fill="#2E3A5B"></path>
                <path d="M177.578907,63.0965349 L160.961242,60.951458 L158.921821,49.426529 L153.823919,49.426529 L153.483943,49.426529 L148.385607,49.426529 L146.346619,60.951458 L129.856284,63.2541976 C129.651865,63.2831385 129.568279,63.5379905 129.716829,63.6809669 C138.936016,72.5269254 152.020099,72.2223988 153.653714,72.1472391 C155.28733,72.2223988 168.498308,72.3692627 177.72096,63.5233041 C177.870376,63.3798959 177.784624,63.123316 177.578907,63.0965349" id="Fill-87" fill="#D57C60"></path>
            </g>
            <g id="Group-92" transform="translate(129.000000, 51.000000)">
                <path d="M24.794,1.18101852 L24.4531681,1.18101852 L19.3489292,1.18101852 L17.3069735,12.5455741 L0.292265487,14.8856111 C9.53852212,23.9676296 22.9662566,23.6601111 24.6235841,23.5851481 L24.6235841,23.5851481 C26.2809115,23.6601111 39.7090796,23.9676296 48.9549027,14.8856111 L48.9549027,14.8856111 L31.9401947,12.5455741 L29.8982389,1.18101852 L24.794,1.18101852 Z" id="Clip-91"></path>
                <path d="M17.1369478,2.85243704 C17.1369478,2.85243704 19.1789035,12.5456593 34.1520894,10.8743259 C45.3305938,9.62678889 33.1308947,0.512825926 33.1308947,0.512825926 L17.1369478,2.85243704 Z" id="Fill-90" fill="#C96A54"></path>
            </g>
            <path d="M154,22 C147.512121,22 140,27.7917703 140,34.6059242 C140,36.9906176 141.024677,45.5078758 143.07316,51.9816693 C144.25491,55.713912 147.707049,57.9740091 150.4182,59.2182347 C152.687718,60.2605884 155.312282,60.2605884 157.5818,59.2182347 C160.292951,57.9740091 163.74509,55.713912 164.92684,51.9816693 C166.975323,45.5078758 168,36.9906176 168,34.6059242 C168,27.7917703 160.487879,22 154,22" id="Fill-93" fill="#D57C60"></path>
            <g id="Group-97" transform="translate(139.000000, 21.000000)">
                <path d="M0.262338462,13.0728876 C0.262338462,15.4799326 1.2768,24.0770225 3.30486154,30.6110562 L3.30486154,30.6110562 C4.4744,34.3787191 7.89255385,36.66 10.5762462,37.9158876 L10.5762462,37.9158876 C12.824,38.967573 15.4215385,38.967573 17.6692923,37.9158876 L17.6692923,37.9158876 C20.3529846,36.66 23.7711385,34.3787191 24.9406769,30.6110562 L24.9406769,30.6110562 C26.9687385,24.0770225 27.9827692,15.4799326 27.9827692,13.0728876 L27.9827692,13.0728876 C27.9827692,6.19486517 20.5459692,0.348808989 14.1227692,0.348808989 L14.1227692,0.348808989 C7.69956923,0.348808989 0.262338462,6.19486517 0.262338462,13.0728876" id="Clip-96"></path>
                <path d="M7.17786462,3.42669775 C7.17786462,3.42669775 14.8649415,24.695282 27.1771877,20.5801247 C39.9602646,16.3076528 7.17786462,3.42669775 7.17786462,3.42669775" id="Fill-95" fill="#C96A54"></path>
            </g>
            <g id="Group-108" transform="translate(136.000000, 0.000000)">
                <path d="M9.91035802,22.5831083 C9.91035802,22.5831083 15.759679,42.7648213 30.7422716,40.729025 C35.1237531,40.1336917 31.3057284,27.1199139 31.3057284,27.1199139 L21.7338765,20.8819694 L9.91035802,22.5831083 Z" id="Fill-98" fill="#2E3A5B"></path>
                <path d="M14.6727346,21.8980398 C14.6727346,21.8980398 6.30557407,29.3401417 4.16668519,39.2876046 C2.0277963,49.2346324 4.27989506,25.9857343 4.27989506,25.9857343 L14.6727346,21.8980398 Z" id="Fill-100" fill="#2E3A5B"></path>
                <path d="M7.01119136,46.6309194 C5.56668519,47.1252898 1.38051235,46.6552898 0.471376543,42.526688 C-0.437759259,38.3985213 4.72970988,38.2061694 6.01304321,42.0070769 C7.45452469,46.2771139 7.01119136,46.6309194 7.01119136,46.6309194" id="Fill-102" fill="#D57C60"></path>
                <path d="M28.2351049,46.6309194 C29.6796111,47.1252898 33.865784,46.6552898 34.7749198,42.526688 C35.6844877,38.3985213 30.5165864,38.2061694 29.2332531,42.0070769 C27.7917716,46.2771139 28.2351049,46.6309194 28.2351049,46.6309194" id="Fill-104" fill="#D57C60"></path>
                <path d="M14.6552346,18.7926889 L14.6552346,18.7926889 L32.6422099,0.352151852 L32.4516543,26.2012815 C25.5834444,27.5251148 18.5907901,24.6141611 14.6552346,18.7926889" id="Fill-106" fill="#F4B132"></path>
            </g>
            <g id="Group-121" transform="translate(146.000000, 0.000000)">
                <g id="Group-111" transform="translate(2.000000, 0.000000)">
                    <path d="M20.2877149,0.350806695 L2.39418552,18.7258793 C6.30938914,24.5261146 13.2654525,27.4270995 20.0981448,26.1079969 L20.0981448,26.1079969" id="Clip-110"></path>
                    <path d="M15.0929344,16.2431739 C6.37786652,16.2431739 0.939653846,11.9693163 0.632300905,11.7212799 L2.92519683,8.81509145 C3.28198416,9.09825186 11.8173688,15.693331 24.6866448,10.6038153 L26.0304005,14.0620148 C21.9987036,15.6560388 18.3203552,16.2431739 15.0929344,16.2431739" id="Fill-109" fill="#FFCF83"></path>
                </g>
                <g id="Group-114" transform="translate(4.000000, 0.000000)">
                    <path d="M18.2877149,0.350806695 L0.39418552,18.7258793 C4.30938914,24.5261146 11.2654525,27.4270995 18.0981448,26.1079969 L18.0981448,26.1079969" id="Clip-113"></path>
                    <path d="M14.9553643,8.49203707 C6.24072624,8.49203707 0.80208371,4.21817949 0.494730769,3.97014311 L2.79321493,1.06872457 L1.64418778,2.51965066 L2.7876267,1.06395464 C3.14484389,1.34754868 11.6802285,7.94262783 24.5490747,2.85267852 L25.8928303,6.31087802 C21.8611335,7.90490201 18.1832149,8.49203707 14.9553643,8.49203707" id="Fill-112" fill="#FFCF83"></path>
                </g>
                <g id="Group-117">
                    <path d="M22.2877149,0.350806695 L4.39418552,18.7258793 C8.30938914,24.5261146 15.2654525,27.4270995 22.0981448,26.1079969 L22.0981448,26.1079969" id="Clip-116"></path>
                    <path d="M15.2192421,24.0408825 C6.50417421,24.0408825 1.06596154,19.767025 0.758608597,19.5189886 L3.05709276,16.61757 L1.90763575,18.0684961 L3.05150452,16.6128001 C3.40829186,16.8959605 11.9432466,23.4910397 24.8129525,18.401524 L26.1567081,21.8597235 C22.1250113,23.4537475 18.4466629,24.0408825 15.2192421,24.0408825" id="Fill-115" fill="#FFCF83"></path>
                </g>
                <g id="Group-120" transform="translate(4.000000, 0.000000)">
                    <path d="M18.2877149,0.350806695 L0.39418552,18.7258793 C4.30938914,24.5261146 11.2654525,27.4270995 18.0981448,26.1079969 L18.0981448,26.1079969 L18.2877149,0.350806695 Z" id="Clip-119"></path>
                    <polygon id="Fill-118" fill-opacity="0.33800385" fill="#F4B132" style="mix-blend-mode: multiply;" points="18.2878439 0.350850058 12.7546312 30.9061566 24.7207624 28.3525093"></polygon>
                </g>
            </g>
            <g id="Group-130" transform="translate(0.000000, 0.349549)">
                <polygon id="Fill-122" fill="#FFFFFF" points="111.722425 106.082257 100.882357 121.022142 90.0418553 106.082257"></polygon>
                <polygon id="Clip-125" points="0 138.346783 303.652695 138.346783 303.652695 0 0 0"></polygon>
                <polygon id="Fill-124" fill="#FFFFFF" points="99.9584046 131.631461 101.806222 131.631461 101.806222 117.003967 99.9584046 117.003967"></polygon>
                <polygon id="Fill-126" fill="#FFFFFF" points="97.5965584 132.658073 104.168068 132.658073 104.168068 131.631461 97.5965584 131.631461"></polygon>
                <path d="M251.847198,40.0586117 C251.847198,40.0586117 247.955825,37.3335096 246.174696,33.8838164 C246.174696,33.8838164 242.710742,35.9806803 241.702605,36.1180804 C241.702605,36.1180804 242.659642,38.8937353 246.652782,41.7467319 C246.652782,41.7467319 250.864611,40.0806476 251.847198,40.0586117" id="Fill-127" fill="#F0F3FA"></path>
                <path d="M124.136841,48.0376691 C124.136841,48.0376691 119.266345,50.1505198 114.933263,49.8342403 C114.933263,49.8342403 114.917673,54.3494324 114.461673,55.3885747 C114.461673,55.3885747 117.670562,56.0954507 122.722505,53.9609963 C122.722505,53.9609963 123.58557,48.9843472 124.136841,48.0376691" id="Fill-128" fill="#F0F3FA"></path>
                <path d="M34.0800889,138.34661 L272.073115,138.34661 C275.294995,138.34661 277.906277,135.741193 277.906277,132.526549 L28.2469265,132.526549 C28.2469265,135.741193 30.8586416,138.34661 34.0800889,138.34661" id="Fill-129" fill="#BEC9DA"></path>
            </g>
            <g id="Group-133" transform="translate(20.000000, 110.000000)">
                <path d="M8.09878683,23.2271429 C8.09878683,26.4152857 10.7114385,29 13.9350087,29 L13.9350087,29 L252.05286,29 C255.27643,29 257.889081,26.4152857 257.889081,23.2271429 L257.889081,23.2271429 L8.09878683,23.2271429 Z" id="Clip-132"></path>
                <polygon id="Fill-131" fill="#E1E6ED" points="0.0082322357 24.3817143 283.649047 24.3817143 283.649047 0.135714286 0.0082322357 0.135714286"></polygon>
            </g>
        </g>
    </g>
</svg>