<?xml version="1.0" encoding="UTF-8"?>
<svg width="345px" height="345px" viewBox="0 0 345 345" version="1.1" xmlns="http://www.w3.org/2000/svg" xmlns:xlink="http://www.w3.org/1999/xlink">
    <title>Illustration/Workers</title>
    <g id="Illustration/Workers" stroke="none" strokeWidth="1" fill="none" fillRule="evenodd">
        <g id="Mail-Illustration" transform="translate(70.000000, 102.000000)">
            <path d="M144.955913,91.3692481 L146.563719,91.0910093 C146.717958,91.0639556 146.871081,91.0310093 147.025154,91.0030315 C141.783638,87.7465309 139.495191,81.2902131 141.514325,75.4555172 C143.53346,69.6208213 149.321464,65.9644637 155.452468,66.6506111 L153.345092,71.6697241 L158.33792,67.3062056 C158.349567,67.3090949 158.360965,67.3129108 158.372004,67.3176167 C161.673953,68.4816056 164.378661,70.9108433 165.891082,74.0708894 C167.403504,77.2309354 167.59974,80.862916 166.436619,84.1677833 C166.353095,84.4057463 166.253664,84.6329593 166.15825,84.8629519 C167.567773,84.1540963 168.919915,83.3289111 170.02258,82.2723185 C172.254934,80.1312389 173.478058,77.1766556 174.84489,73.5365389 C177.552826,66.3231056 180.159963,59.0052593 182.663065,51.6714611 C176.959889,48.5824984 174.345024,41.8031702 176.494872,35.6797315 C176.628992,35.2983704 176.784361,34.9311426 176.949043,34.5704815 C176.990208,34.4802222 177.031746,34.390537 177.074743,34.3015685 C177.242105,33.9557944 177.418789,33.617013 177.612686,33.2918778 C177.64438,33.2385759 177.679889,33.1886981 177.712258,33.1359741 C177.881019,32.861837 178.059032,32.5958136 178.246297,32.3379037 C178.31601,32.2410722 178.385492,32.1445093 178.457588,32.0499778 C178.669767,31.7722759 178.889498,31.5020574 179.121203,31.2440852 C179.19863,31.1577685 179.280776,31.0771204 179.360265,30.9930333 C179.538276,30.8050383 179.721166,30.6227179 179.908936,30.4460722 C180.007939,30.3530759 180.105884,30.2594056 180.207485,30.1697056 C180.233561,30.1466926 180.257889,30.1215759 180.284132,30.0987519 C180.285446,30.1004352 180.286467,30.1022407 180.287729,30.1039037 C185.085136,25.9194437 192.183442,25.759839 197.163749,29.7244481 L194.421525,36.2559444 L199.357584,31.9443167 C202.903112,36.4655522 203.10076,42.7687015 199.845477,47.5035759 C199.850026,47.5051815 199.854728,47.5064222 199.859277,47.5080204 C199.805383,47.5873019 199.744176,47.6598611 199.688739,47.7377278 C199.584655,47.883871 199.478096,48.0274148 199.369061,48.1683593 C199.228817,48.3491 199.08318,48.5237815 198.934509,48.6960778 C198.822247,48.8261296 198.711605,48.9572611 198.594756,49.0823611 C198.423846,49.2653667 198.244778,49.4386463 198.06453,49.6109611 C197.959279,49.7114704 197.858675,49.8170722 197.750441,49.9138907 C197.466708,50.1675759 197.173171,50.4082827 196.869831,50.6360111 C196.763429,50.7157722 196.651159,50.7861315 196.542555,50.8625185 C196.329575,51.0124685 196.115491,51.1602148 195.894392,51.297063 C195.757188,51.3819407 195.616345,51.4595296 195.476251,51.5392981 C195.273497,51.6548981 195.069304,51.7668907 194.860837,51.8715111 C194.713037,51.9456704 194.56416,52.0160648 194.413711,52.0846704 C194.199668,52.1823093 193.98293,52.2728611 193.763913,52.3590389 C193.61694,52.4168167 193.4707,52.4753352 193.321681,52.5278741 C193.075851,52.6145407 192.82641,52.6898315 192.575487,52.7619074 C192.448836,52.7983426 192.324232,52.8400259 192.196403,52.8726481 C191.819991,52.968737 191.439391,53.0505352 191.05432,53.1132037 C190.981908,53.1250389 190.908189,53.1295 190.835501,53.1400759 C190.516317,53.1865667 190.19545,53.2240815 189.872027,53.247 C189.733002,53.2568 189.593144,53.2582111 189.453525,53.2636537 C189.192111,53.2738389 188.930431,53.2790241 188.667323,53.2733907 C188.513872,53.2701315 188.360505,53.262187 188.206653,53.2535 C187.950465,53.2389926 187.694041,53.2166617 187.437382,53.1865074 C187.285623,53.1689148 187.1343,53.1514556 186.982443,53.1284426 C186.707421,53.0866796 186.432824,53.0320741 186.158097,52.9722685 C186.140089,52.96835 186.122001,52.9659722 186.103962,52.9619796 C185.047465,56.055987 183.971407,59.1433864 182.875788,62.2241778 C185.576511,59.7934104 189.159148,58.5848691 192.778934,58.8835207 C196.398719,59.1821723 199.735278,60.9615841 202.001871,63.8021815 L197.438555,68.8533759 L203.617068,66.3847 C205.117816,69.5345731 205.307756,73.1519496 204.14515,76.4419222 C203.742326,77.5979976 203.177847,78.6911009 202.46855,79.6886278 C199.344876,84.1109617 193.840129,86.1760366 188.581898,84.8981271 C183.323668,83.6202177 179.37803,79.2584125 178.628362,73.8947389 C178.512281,74.2051481 178.400127,74.5194519 178.283747,74.8295537 C177.077557,78.0409019 175.576983,82.0374093 172.563405,84.9268426 C170.520674,86.8853074 168.007389,88.1278259 165.596095,89.1783148 C164.025917,89.8622815 162.434841,90.4946272 160.822866,91.0753519 C159.030804,92.1629095 157.006217,92.8087265 154.915902,92.9595963 C152.372437,93.6667796 149.796893,94.2571241 147.197234,94.7129185 L145.576261,94.9925963 C144.119513,95.2423722 142.625779,95.4995352 141.14329,95.7958278 C141.356749,95.8592167 141.570484,95.9196926 141.782827,95.9944944 C147.203043,97.9039092 150.767113,103.102776 150.596969,108.851576 L140.43481,111.973569 L149.630349,113.435154 C147.920492,117.64108 144.173267,120.674044 139.706382,121.467507 C135.239496,122.26097 130.678392,120.703833 127.626978,117.343661 C127.720314,117.656676 127.814032,117.969201 127.908129,118.281235 C128.09479,118.90133 128.279969,119.517917 128.457847,120.128643 C130.877545,128.450519 129.836191,134.996715 125.525087,138.560552 L123.185778,135.726274 C127.381618,132.257065 126.079851,125.108565 124.931178,121.155515 C124.756576,120.555811 124.574261,119.950072 124.390879,119.340994 C122.814895,114.100663 121.028326,108.160785 123.34222,102.702526 C126.82948,94.4757963 136.880091,92.7532759 144.955913,91.3692481 Z" id="Path" fill="#F7F7F7" fill-rule="nonzero"></path>
            <path d="M141.977499,139.628067 L70.7763074,139.628067 C65.9141382,139.628067 61.9725713,135.682939 61.9725713,130.816378 L61.9725713,98.1660537 C61.9725713,97.2078313 62.3661005,96.2917373 63.0609066,95.6325241 L100.790494,59.8357074 C103.92293,56.8637389 108.830879,56.8637389 111.963314,59.8357074 L147.936479,93.9660704 C149.752608,95.6891656 150.781239,98.0837119 150.781239,100.588376 L150.781239,130.816378 C150.781239,133.153384 149.853705,135.394672 148.202683,137.047184 C146.551662,138.699696 144.312396,139.628067 141.977499,139.628067 L141.977499,139.628067 Z" id="Path" fill="#3F3D56" fill-rule="nonzero"></path>
            <path d="M61.9725713,98.7021407 L150.041163,98.7021407 L150.041163,134.307274 C150.041163,137.245867 147.661113,139.628067 144.725173,139.628067 L67.2885617,139.628067 C64.3526212,139.628067 61.9725713,137.245867 61.9725713,134.307274 L61.9725713,98.7021407 Z" id="Path" fill="#000000" fill-rule="nonzero" opacity="0.1"></path>
            <g id="Group" transform="translate(0.134070, 0.026054)"></g>
            <rect id="Rectangle" fill="#6C63FF" fill-rule="nonzero" x="73.5361994" y="70.6465852" width="65.4963899" height="65.5555556" rx="4.85490748"></rect>
            <polygon id="Path" fill="#000000" fill-rule="nonzero" opacity="0.1" points="139.032554 100.174444 139.032554 136.202222 73.5361643 136.202222 73.5361643 100.174444 106.284359 116.017037"></polygon>
            <path d="M106.284394,118.053993 L64.3234476,97.7545481 C63.7958549,97.4993152 63.1742016,97.5335904 62.6778102,97.8452814 C62.1814188,98.1569723 61.8800622,98.7022673 61.8800622,99.2887833 L61.8800622,134.21468 C61.8800622,135.625842 62.4401375,136.979207 63.4370791,137.977049 C64.4340208,138.974892 65.786164,139.535474 67.1960527,139.535474 L145.372736,139.535474 C146.782625,139.535474 148.134768,138.974892 149.13171,137.977049 C150.128651,136.979207 150.688726,135.625842 150.688726,134.21468 L150.688726,99.887087 C150.688726,99.1713811 150.320993,98.5059752 149.715264,98.1256288 C149.109534,97.7452825 148.350951,97.7034579 147.707148,98.0149111 L106.284394,118.053993 Z" id="Path" fill="#3F3D56" fill-rule="nonzero"></path>
            <rect id="Rectangle" fill="#F7F7F7" fill-rule="nonzero" x="79.17925" y="76.6651037" width="18.316787" height="2.59259259" rx="1"></rect>
            <rect id="Rectangle" fill="#F7F7F7" fill-rule="nonzero" x="77.6991056" y="86.1095481" width="54.3953069" height="1.48148148" rx="0.740740741"></rect>
            <rect id="Rectangle" fill="#F7F7F7" fill-rule="nonzero" x="77.6991056" y="91.1095481" width="54.3953069" height="1.48148148" rx="0.740740741"></rect>
            <rect id="Rectangle" fill="#F7F7F7" fill-rule="nonzero" x="77.6991056" y="96.1095481" width="54.3953069" height="1.48148148" rx="0.740740741"></rect>
            <line x1="28.6693222" y1="139.535474" x2="181.124196" y2="139.535474" id="Path" stroke="#3F3D56" stroke-width="0.6"></line>
            <path d="M17.3916968,116.732054 C17.3916968,127.650622 24.2352517,136.485789 32.6925693,136.485789" id="Path" fill="#46455B" fill-rule="nonzero"></path>
            <path d="M32.6925693,136.485789 C32.6925693,125.444541 40.3295778,116.510102 49.7674541,116.510102" id="Path" fill="#6C63FF" fill-rule="nonzero"></path>
            <path d="M22.9354907,117.721841 C22.9354907,128.093322 27.2994966,136.485789 32.6925693,136.485789" id="Path" fill="#6C63FF" fill-rule="nonzero"></path>
            <path d="M32.6925693,136.485789 C32.6925693,122.377528 41.519762,110.9613 52.4284743,110.9613" id="Path" fill="#46455B" fill-rule="nonzero"></path>
            <path d="M29.4736604,136.625056 C29.4736604,136.625056 31.6435761,136.558163 32.2975335,136.092069 C32.9514909,135.625974 35.635409,135.06943 35.7976403,135.816944 C35.9598715,136.564459 39.0586204,139.534743 36.6087964,139.55452 C34.1589724,139.574298 30.9164959,139.172578 30.2637966,138.774633 C29.6110973,138.376689 29.4736604,136.625056 29.4736604,136.625056 Z" id="Path" fill="#A8A8A8" fill-rule="nonzero"></path>
            <path d="M36.6525162,139.294307 C34.2026921,139.314093 30.9602175,138.912369 30.3075164,138.514422 C29.8104506,138.211367 29.6123758,137.12393 29.5461005,136.622228 C29.5002031,136.624204 29.4736604,136.625054 29.4736604,136.625054 C29.4736604,136.625054 29.6110973,138.376687 30.2637985,138.774631 C30.9164996,139.172576 34.1589835,139.574302 36.6087964,139.554517 C37.315965,139.548809 37.5602314,139.296981 37.5468194,138.924004 C37.4485785,139.149348 37.1788703,139.290061 36.6525162,139.294307 Z" id="Path" fill="#000000" fill-rule="nonzero" opacity="0.2"></path>
            <path d="M150.55161,56.99455 C150.440414,57.9861315 149.684778,58.784887 149.404797,59.7425333 C148.983386,61.1839222 149.71207,62.7306611 150.708844,63.8532278 C152.33335,65.6635319 154.614326,66.7475472 157.042685,66.8633333 C157.395867,66.8944087 157.751706,66.8555917 158.089907,66.7490963 C158.391866,66.6274817 158.663745,66.4415116 158.886647,66.2041111 C159.637311,65.4496907 160.040268,64.4043852 160.200856,63.3518481 C160.361444,62.2993111 160.299036,61.2270056 160.236241,60.1641241 C160.236549,59.9444114 160.196667,59.7264985 160.118569,59.5211611 C160.016204,59.3255571 159.875597,59.1525463 159.705104,59.0124111 C159.164659,58.5161878 158.56937,58.0833563 157.930803,57.7223278 C157.642169,57.5928728 157.387622,57.397917 157.18733,57.1529074 C157.066653,56.9430142 156.988553,56.7113443 156.957508,56.4711796 L156.761491,55.471387 C156.726524,55.1832708 156.628214,54.9064875 156.473629,54.6609352 C156.127349,54.193387 155.464966,54.1297593 154.883935,54.1069463 L152.755275,54.0233685 C152.093139,53.9973704 151.220694,53.8073241 150.574304,53.9374778 C149.970703,54.0590167 150.171201,54.6157407 150.280845,55.122663 C150.439843,55.7347115 150.530651,56.3624981 150.55161,56.99455 L150.55161,56.99455 Z" id="Path" fill="#A0616A" fill-rule="nonzero"></path>
            <path d="M150.55161,56.99455 C150.440414,57.9861315 149.684778,58.784887 149.404797,59.7425333 C148.983386,61.1839222 149.71207,62.7306611 150.708844,63.8532278 C152.33335,65.6635319 154.614326,66.7475472 157.042685,66.8633333 C157.395867,66.8944087 157.751706,66.8555917 158.089907,66.7490963 C158.391866,66.6274817 158.663745,66.4415116 158.886647,66.2041111 C159.637311,65.4496907 160.040268,64.4043852 160.200856,63.3518481 C160.361444,62.2993111 160.299036,61.2270056 160.236241,60.1641241 C160.236549,59.9444114 160.196667,59.7264985 160.118569,59.5211611 C160.016204,59.3255571 159.875597,59.1525463 159.705104,59.0124111 C159.164659,58.5161878 158.56937,58.0833563 157.930803,57.7223278 C157.642169,57.5928728 157.387622,57.397917 157.18733,57.1529074 C157.066653,56.9430142 156.988553,56.7113443 156.957508,56.4711796 L156.761491,55.471387 C156.726524,55.1832708 156.628214,54.9064875 156.473629,54.6609352 C156.127349,54.193387 155.464966,54.1297593 154.883935,54.1069463 L152.755275,54.0233685 C152.093139,53.9973704 151.220694,53.8073241 150.574304,53.9374778 C149.970703,54.0590167 150.171201,54.6157407 150.280845,55.122663 C150.439843,55.7347115 150.530651,56.3624981 150.55161,56.99455 L150.55161,56.99455 Z" id="Path" fill="#F4C5BE" fill-rule="nonzero"></path>
            <path d="M164.092727,101.626181 C163.791148,104.935849 163.489572,108.245006 163.187998,111.55365 C162.951915,114.15748 162.711262,116.771983 162.24824,119.342267 C162.088307,120.227993 161.900961,121.109152 161.678588,121.982681 C161.060206,124.408139 160.163105,126.778717 159.873703,129.265165 C159.864565,129.336811 159.856952,129.40998 159.849338,129.483167 C159.816937,130.032986 159.712994,130.576223 159.540142,131.09912 C159.395445,131.478717 159.173066,131.824778 159.016191,132.199806 C158.703955,132.949852 158.662827,133.779174 158.62475,134.591719 C157.526406,133.973485 156.324061,133.562181 155.077423,133.378231 C154.475793,133.288283 153.805629,133.224257 153.395911,132.774528 C152.942017,132.277543 152.992283,131.516824 153.068429,130.849098 C153.30756,128.775798 153.546181,126.703514 153.784293,124.632246 C153.862002,123.741119 154.013305,122.857963 154.236653,121.991831 C154.318908,121.7037 154.417904,121.420148 154.518435,121.136596 C154.657034,120.746328 154.797158,120.356057 154.902254,119.955115 C155.053701,119.307296 155.159564,118.649643 155.219064,117.986996 C155.464281,115.901496 155.759766,113.820567 156.018697,111.736593 L156.032409,111.626833 C156.4208,108.468089 156.716285,105.294104 156.630992,102.112496 C156.618803,101.641435 156.599002,101.170363 156.568539,100.697776 C156.525896,100.013281 156.463449,99.6504537 157.030046,99.2220722 C157.656044,98.7494796 158.480033,98.418663 159.195908,98.1091889 C159.58126,97.9414981 163.824649,96.4337778 163.923654,96.7645981 C164.122718,97.4702355 164.227203,98.1992228 164.234366,98.9324148 C164.237392,99.8322785 164.190106,100.731607 164.092727,101.626181 Z" id="Path" fill="#605D82" fill-rule="nonzero"></path>
            <path d="M162.24824,119.342267 C162.088307,120.227993 161.900961,121.109152 161.678588,121.982681 C161.060206,124.408139 160.163105,126.778717 159.873703,129.265165 C159.864565,129.336811 159.856952,129.40998 159.849338,129.483167 C157.957625,126.778722 156.364455,123.869998 154.518445,121.136593 C154.657044,120.746324 154.797167,120.356054 154.902263,119.955111 C155.05371,119.307292 155.159573,118.649639 155.219073,117.986993 C155.46429,115.901493 155.759775,113.820563 156.018706,111.736589 L156.032418,111.62683 C156.140763,112.069252 156.295453,112.498995 156.493916,112.90892 C157.733733,115.430431 160.679427,116.704902 162.120294,119.118159 C162.164462,119.192868 162.20711,119.26757 162.24824,119.342267 Z" id="Path" fill="#000000" fill-rule="nonzero" opacity="0.1"></path>
            <path d="M146.898238,97.1701278 C146.960718,99.1925019 147.284163,101.196628 147.606938,103.194017 L148.272901,107.31507 C148.637387,109.570535 149.016859,111.871965 150.083251,113.892107 C150.880973,115.403274 152.030292,116.692802 153.070029,118.048578 C155.626124,121.381624 157.546372,125.157265 159.970111,128.587935 C160.674606,129.585111 161.681605,130.663515 162.883938,130.4553 C163.67304,130.318644 164.246176,129.661065 164.866454,129.154063 C165.597742,128.556324 166.479114,128.118943 167.054502,127.369696 C167.629889,126.62045 167.742625,125.375046 166.963086,124.841885 C166.681019,124.685494 166.381553,124.562849 166.070861,124.476478 C164.862415,124.016478 164.080239,122.835322 163.582553,121.640983 C163.084867,120.446644 162.783332,119.162419 162.120152,118.051572 C160.679433,115.638324 157.733317,114.363909 156.493198,111.841506 C155.798625,110.428743 155.732428,108.800409 155.679337,107.226757 L155.543996,103.215259 C155.529195,102.77658 155.517616,102.320339 155.695783,101.919267 C156.170142,100.851443 157.602385,100.751983 158.762087,100.616609 C160.078313,100.46221 161.353385,100.059558 162.51982,99.429963 C163.187778,99.0689389 163.84035,98.6087037 164.197688,97.9383389 C164.523701,97.3267389 164.568692,96.6093907 164.606922,95.9172444 L165.008469,88.6472796 C165.043015,88.0218148 165.07452,87.3751019 164.854275,86.7887611 C164.301243,85.31645 162.44376,84.8353407 160.87382,84.905587 C157.952385,85.0363056 155.255446,86.2941481 152.500899,87.1435815 C151.818627,87.3589811 151.12594,87.5398186 150.425475,87.6854056 C149.807271,87.8095778 149.059093,87.7580556 148.469487,87.9570093 C147.420938,88.3108296 147.447562,90.6059685 147.298878,91.5580222 C146.991794,93.4122472 146.85767,95.2910396 146.898238,97.1701278 L146.898238,97.1701278 Z" id="Path" fill="#605D82" fill-rule="nonzero"></path>
            <path d="M162.487263,130.760109 C162.744876,131.020144 162.829084,131.4011 162.89619,131.761089 C163.268303,133.757931 163.461857,135.783996 163.474556,137.815235 C163.45734,138.004757 163.495141,138.195225 163.583421,138.363772 C163.655968,138.464299 163.754271,138.543371 163.867966,138.59265 C164.612523,138.947835 165.476727,138.452835 166.09715,137.908865 C167.247274,136.900454 168.220469,135.546926 168.285795,134.017939 C168.273822,133.624117 168.287604,133.229932 168.327054,132.837911 C168.428074,132.262285 168.763906,131.760744 169.059816,131.256915 C169.563403,130.39926 169.969582,129.487927 170.270783,128.539906 C170.383898,128.183735 170.459132,127.735265 170.180293,127.486698 C170.081428,127.409161 169.969034,127.350679 169.848829,127.314228 L166.485464,126.064281 C166.194007,125.955967 165.46876,127.820633 165.353651,128.024485 C165.072076,128.52313 164.792099,128.806207 164.227202,128.921307 C163.650575,129.038796 162.964154,128.870211 162.426114,129.158159 C161.515962,129.645244 161.971928,130.239926 162.487263,130.760109 Z" id="Path" fill="#535070" fill-rule="nonzero"></path>
            <path d="M157.297521,131.910811 C157.234966,131.786338 157.147881,131.675829 157.041514,131.585943 C156.885807,131.487098 156.708769,131.426898 156.525128,131.410352 C155.884822,131.301533 155.125889,131.229881 154.683953,131.706237 C154.269623,132.152839 154.340853,132.88038 153.994459,133.381607 C153.8848,133.540281 153.736222,133.671052 153.641146,133.838885 C153.52314,134.095441 153.469913,134.377086 153.486148,134.659057 C153.468281,135.435956 153.450419,136.214172 153.504037,136.989428 C153.548969,137.639057 153.658374,138.319798 154.064249,138.828737 C154.715707,139.645607 155.890659,139.763069 156.93357,139.816087 L157.778224,139.859026 C158.010849,139.887325 158.246829,139.865671 158.470436,139.795507 C158.75008,139.666129 158.965469,139.428931 159.067506,139.137983 C159.507177,138.044191 158.810886,136.865748 158.381984,135.76768 C157.889013,134.505544 157.977533,133.104109 157.297521,131.910811 Z" id="Path" fill="#535070" fill-rule="nonzero"></path>
            <path d="M150.306892,51.4074019 C150.296544,51.2965173 150.312825,51.1847631 150.354379,51.0814537 C150.478093,50.8625056 150.801134,50.9220944 151.04482,50.983587 C152.024816,51.2308815 153.057418,51.0070315 154.066429,51.0648037 C155.07544,51.1225759 156.212019,51.6274593 156.414896,52.6184407 C157.147277,52.098762 157.778606,51.4494948 158.277773,50.7026352 C158.557807,50.2831907 158.801896,49.8027481 158.763773,49.2997167 C158.708787,48.5741611 158.100588,48.03155 157.537438,47.5714056 L155.858725,46.1997389 C155.638416,45.9970665 155.38393,45.8351236 155.107096,45.7214389 C154.719445,45.5888463 154.296706,45.6520204 153.887045,45.6522833 C152.665054,45.6530667 151.362176,45.096437 150.275363,45.6556037 C149.821377,45.8891796 149.479672,46.2894481 149.150268,46.679737 L147.651992,48.4549037 C147.539209,48.5680381 147.456825,48.707869 147.412493,48.8614056 C147.369865,49.0780889 147.481043,49.2919333 147.519839,49.5093352 C147.59061,49.9059074 147.419959,50.32915 147.551157,50.7099926 C147.768966,51.3422389 148.53593,51.431737 149.004818,51.7941963 C149.179575,51.929287 149.453463,52.3871111 149.661678,52.3815204 C150.037359,52.3714333 150.297125,51.6995426 150.306892,51.4074019 Z" id="Path" fill="#2F3A5B" fill-rule="nonzero"></path>
            <ellipse id="Oval" fill="#F4C5BE" fill-rule="nonzero" cx="152.849108" cy="51.8379185" rx="4.79780483" ry="4.80213889"></ellipse>
            <path d="M153.972839,62.347487 C153.638787,61.3897837 152.723231,60.7591583 151.710194,60.7890019 C151.568975,60.8153124 151.423072,60.7968476 151.29284,60.7361833 C151.219189,60.6795433 151.160336,60.6058955 151.121312,60.5215352 C150.829576,59.996442 150.595046,59.4414979 150.421758,58.8662556 C150.345218,58.6120778 150.24055,58.3124222 149.983667,58.2463389 C149.766935,58.2179501 149.552215,58.3114363 149.425201,58.489487 C149.303197,58.6653688 149.169862,58.8330983 149.026043,58.9916074 C148.422625,59.5316296 147.352981,59.0394296 146.71252,59.5348741 C146.607905,59.6158 146.521569,59.7194685 146.411692,59.7930815 C146.301718,59.8593413 146.18319,59.910204 146.059418,59.94425 C144.82265,60.3483736 143.610235,60.8236564 142.428229,61.3677241 C142.854246,63.9356519 143.290783,66.54835 144.28938,68.9519074 C144.764597,70.0957333 145.303136,71.2159815 145.683676,72.39475 C146.526844,75.0065389 146.564225,77.8010278 146.573688,80.5457611 C146.580164,82.4242907 146.570835,84.3429259 145.963613,86.1204333 C145.800262,86.5132529 145.68512,86.9244549 145.62071,87.3450296 C145.584038,87.7685944 145.707219,88.2356148 146.0501,88.4865611 C146.248897,88.6166951 146.476263,88.6966262 146.7127,88.7195 C147.764853,88.8740241 148.825569,88.5937593 149.861568,88.353613 C152.63836,87.7099611 155.470353,87.3416519 158.296911,86.9743111 L163.033345,86.3587556 C163.372851,86.3356749 163.705127,86.2497209 164.01329,86.1052611 C164.880003,85.6302889 164.962284,84.325387 164.424052,83.4959704 C164.166019,83.0983389 163.801957,82.7721296 163.585151,82.3505574 C163.368345,81.9289852 163.349882,81.3394685 163.723119,81.0474815 C164.482335,80.4535389 164.255871,79.3515778 164.292081,78.3877796 C164.393326,75.6928759 164.379629,72.9969198 164.250988,70.2999111 C164.212962,69.7416201 164.204035,69.1817248 164.224244,68.6225037 C164.308415,67.6748984 164.483343,66.7375778 164.746614,65.8234574 L166.18582,60.1516056 C165.80985,59.55695 165.089976,59.1796704 164.408037,59.0083778 C163.726097,58.8370852 163.015839,58.7866722 162.344257,58.5783778 C160.968411,58.1516611 159.743523,57.0687481 158.306671,57.1696741 C158.197984,57.1716284 158.091092,57.197753 157.993737,57.2461556 C157.669674,57.4299056 157.720994,57.8973333 157.70028,58.2695426 C157.654451,59.093037 157.049314,59.7812907 156.381044,60.2638407 C155.712773,60.7463907 154.949559,61.0982537 154.335782,61.6485722 C154.115515,61.8146944 153.982108,62.0715964 153.972839,62.347487 L153.972839,62.347487 Z" id="Path" fill="#3F3D56" fill-rule="nonzero"></path>
            <path d="M134.96234,67.7274074 C134.64418,67.9340318 134.306091,68.1081507 133.953163,68.2471426 C133.607568,68.3500419 133.281046,68.5086463 132.986444,68.7167148 C132.850668,68.834257 132.736844,68.9750168 132.650282,69.1324278 C132.319482,69.7195433 132.334145,70.4403292 132.688551,71.0134797 C133.042956,71.5866301 133.680929,71.9212987 134.353483,71.8868722 C134.792331,71.8376557 135.218866,71.7103667 135.612988,71.5110037 L138.996962,70.0432944 C139.569713,69.7948796 140.188404,69.5037537 140.459115,68.9407889 C140.490656,68.8882772 140.502346,68.8261889 140.492063,68.7657889 C140.464777,68.7019181 140.41544,68.6500068 140.353069,68.6195407 C139.589789,68.1233889 138.922274,67.4933854 138.382641,66.7598426 C138.243806,66.5711741 138.073929,66.1256907 137.877681,66.0125741 C137.161398,65.5997056 135.535656,67.3550056 134.96234,67.7274074 Z" id="Path" fill="#F4C5BE" fill-rule="nonzero"></path>
            <path d="M171.138448,66.5230537 L172.386049,67.9495185 C172.653886,68.2557537 172.922011,68.5623444 173.166157,68.8878167 C173.765693,69.7148123 174.246655,70.6217139 174.595051,71.5821389 C174.866241,72.2943981 175.091325,73.0530778 174.996561,73.8093815 C174.933644,74.1971018 174.829023,74.5768756 174.68452,74.9420796 C174.455858,75.6444633 174.172401,76.3277748 173.836768,76.9857037 C173.554467,77.4855687 173.235605,77.9638445 172.882792,78.4166148 C171.916843,79.6980116 170.859897,80.9080753 169.720166,82.0374056 C169.293644,82.4600093 169.114772,83.1433315 168.929105,83.7145722 C168.586636,84.7682222 167.771756,85.5888667 166.983742,86.3670593 C166.73051,86.6347082 166.450632,86.8757735 166.148463,87.0865037 C165.69576,87.3783302 165.166718,87.5291346 164.628329,87.5198204 C164.392643,87.5214665 164.159283,87.473116 163.943619,87.3779537 C163.404364,87.1216481 163.130289,86.4975074 163.074112,85.9026519 C163.023914,85.3628334 163.114296,84.8192056 163.336451,84.32475 C164.052368,82.737413 165.89081,82.0495648 167.190303,80.891387 C167.952304,80.2122519 168.535014,79.359187 169.109723,78.515363 C169.500084,77.9885134 169.82598,77.4167538 170.080446,76.8123056 C170.370658,76.03725 170.257693,75.119713 170.511238,74.3318648 C170.618408,73.9988444 170.808945,73.69815 170.924182,73.367837 C171.039419,73.0375241 171.068431,72.6454148 170.866845,72.3595833 C170.714771,72.1779228 170.520943,72.0358922 170.301985,71.9456722 C169.471842,71.5239556 168.542093,70.9812278 168.383213,70.0631037 C168.319883,69.5539512 168.452804,69.0397804 168.754914,68.6252704 C169.055932,68.2162909 169.407698,67.847293 169.801746,67.5271593 C170.164811,67.2058278 170.77537,66.844387 171.138448,66.5230537 Z" id="Path" fill="#F4C5BE" fill-rule="nonzero"></path>
            <path d="M134.16139,69.7186185 C133.941094,69.273213 133.665682,68.8187889 133.221156,68.5973222 C132.785623,68.4080471 132.291567,68.4059718 131.854462,68.5915815 C131.423415,68.7775909 131.019864,69.0218377 130.655068,69.3175074 L129.579701,70.1109333 C129.335883,70.271013 129.120165,70.4703136 128.941263,70.7007833 C128.771571,70.9803421 128.65858,71.2906291 128.608746,71.613913 C128.421313,72.3511777 128.364094,73.1155634 128.439675,73.8725519 C128.61033,75.0863222 129.341453,76.1459685 130.146189,77.0699019 C130.649042,77.6472407 131.269881,78.2298667 132.034718,78.2544926 C132.364868,78.2651222 132.73204,78.1348722 132.869351,77.8341722 C132.9169,77.7149534 132.942167,77.5880072 132.943895,77.4596519 C133.026515,76.1058111 132.54265,74.7834259 131.978402,73.5502315 C131.798498,73.2273247 131.692189,72.8685825 131.667095,72.4997167 C131.663049,72.4376409 131.679176,72.3759208 131.713068,72.3237759 C131.761734,72.2730774 131.826781,72.2412891 131.896652,72.2340593 C132.668929,72.0811648 133.99914,72.6816519 134.540906,71.8232593 C134.892122,71.2667833 134.410975,70.2232481 134.16139,69.7186185 Z" id="Path" fill="#F4C5BE" fill-rule="nonzero"></path>
            <path d="M150.055278,49.89635 C150.04493,49.7854656 150.06121,49.6737114 150.102763,49.5704019 C150.226477,49.3514537 150.549521,49.4110426 150.793206,49.4725352 C151.773201,49.7198296 152.805803,49.4959796 153.814814,49.5537519 C154.823824,49.6115241 155.960403,50.1164074 156.163283,51.1073889 C156.895663,50.5877101 157.526993,49.9384429 158.026159,49.1915833 C158.306192,48.7721389 158.55028,48.2916963 158.512157,47.7886648 C158.457172,47.0631185 157.848973,46.5205 157.285824,46.0603537 L155.607109,44.688687 C155.386802,44.4860145 155.132315,44.3240721 154.855481,44.2103889 C154.467829,44.0777963 154.045091,44.1409685 153.635429,44.1412315 C152.413439,44.1420167 151.11056,43.585387 150.023749,44.1445519 C149.569763,44.3781278 149.228059,44.7783963 148.898655,45.168687 L147.400378,46.9438537 C147.287596,47.0569876 147.205212,47.1968178 147.16088,47.3503537 C147.118252,47.567037 147.229429,47.7808815 147.268227,47.9982852 C147.338999,48.3948574 147.168345,48.8181 147.299544,49.1989407 C147.517354,49.831187 148.284317,49.9206852 148.753206,50.2831463 C148.927962,50.4182352 149.201849,50.8760611 149.410065,50.8704685 C149.785735,50.8603815 150.045509,50.1884907 150.055278,49.89635 Z" id="Path" fill="#2F3A5B" fill-rule="nonzero"></path>
            <path d="M139.86513,63.0564389 C139.671424,63.1814844 139.501397,63.339908 139.362941,63.5243574 C139.187035,63.7905574 139.15128,64.1266185 139.000182,64.4076648 C138.676838,65.0090648 137.920555,65.2230185 137.448761,65.7164037 C137.373808,65.7842426 137.321724,65.8736808 137.299686,65.9723907 C137.297411,66.1062929 137.342276,66.2367278 137.426424,66.34085 L139.701535,69.9207685 C140.459038,69.9875259 141.18575,69.5125111 141.943575,69.5755667 C142.22653,69.5991111 142.516072,69.6969315 142.787412,69.6132407 C142.981672,69.5270275 143.16374,69.4155782 143.328918,69.2817685 C143.781035,68.995637 144.383195,68.9622981 144.76251,68.5847926 C145.126536,68.2225 145.172983,67.6556648 145.168643,67.1418611 C145.174725,66.6956676 145.129342,66.2502621 145.033394,65.8144833 C144.698441,64.4403722 143.64846,63.3858759 142.990223,62.1686685 C142.669772,61.5760759 142.495398,61.2291704 141.817129,61.6360593 C141.135342,62.0450519 140.506771,62.5867944 139.86513,63.0564389 Z" id="Path" fill="#3F3D56" fill-rule="nonzero"></path>
            <path d="M167.495992,61.2460796 C167.923553,61.5239734 168.309009,61.8619061 168.640549,62.2495222 C168.987143,62.6968296 169.183445,63.2442611 169.516383,63.7018426 C169.839098,64.1453722 170.27839,64.4888796 170.644439,64.8972981 C171.199574,65.5166889 171.57559,66.2723407 171.944836,67.0178537 C171.042952,68.1951541 170.059556,69.307589 169.001907,70.3469444 C168.884185,70.4857928 168.729073,70.5878507 168.555043,70.6409648 C168.314601,70.6665176 168.077374,70.5697163 167.923317,70.383187 C167.759465,70.2111259 167.643333,69.9990056 167.486689,69.8203444 C167.116979,69.4386112 166.624265,69.2000958 166.095748,69.1470111 C165.571925,69.0963342 165.044815,69.0890687 164.519797,69.1252889 C164.404527,69.1381413 164.28796,69.1185339 164.18322,69.0686741 C164.105343,69.0148836 164.042199,68.9423909 163.999574,68.8578389 C163.383596,67.8087222 163.581726,66.4915278 163.799046,65.2942611 L164.297718,62.5469704 C164.369967,62.0222786 164.509459,61.5090908 164.712747,61.0200815 C164.9016,60.6160574 165.323984,59.9309296 165.843311,60.0518815 C166.366834,60.1738019 167.055551,60.9289926 167.495992,61.2460796 Z" id="Path" fill="#3F3D56" fill-rule="nonzero"></path>
            <ellipse id="Oval" fill="#FFFFFF" fill-rule="nonzero" cx="76.2189611" cy="71.678913" rx="7.58574007" ry="7.60640185"></ellipse>
        </g>
        <circle id="Icon" fill="#14A182" cx="146.5" cy="173.5" r="13.5"></circle>
        <path d="M142.156846,173.845079 C141.79408,173.432432 141.210785,173.426899 140.837712,173.851269 L140.662288,174.050814 C140.296517,174.466879 140.30065,175.146156 140.660519,175.555507 L143.339481,178.602827 C143.704276,179.01778 144.299446,179.03247 144.676463,178.627439 L152.323537,170.412144 C152.697137,170.010784 152.710785,169.356435 152.337712,168.932064 L152.162288,168.732519 C151.796517,168.316454 151.196702,168.301168 150.807861,168.713987 L144,175.941667 L142.156846,173.845079 Z" id="Check" fill="#FFFFFF"></path>
    </g>
</svg>