<?xml version="1.0" encoding="UTF-8"?>
<svg width="345px" height="345px" viewBox="0 0 345 345" version="1.1" xmlns="http://www.w3.org/2000/svg" xmlns:xlink="http://www.w3.org/1999/xlink">
    <title>Illustration/Worker No Profile Photo</title>
    <g id="Illustration/Worker-No-Profile-Photo" stroke="none" strokeWidth="1" fill="none" fillRule="evenodd">
        <g id="Worker-Illustration" transform="translate(99.000000, 66.000000)">
            <path d="M87,109 C86.4491767,109.481929 85.9102367,110.019781 85.4004222,110.591278 C85.2771627,110.725629 85.1191855,111.398057 84.949092,112.428978 C84.6678552,114.08732 84.3456096,116.676099 84.0820812,119.43265 C83.5547914,124.856184 83.2381379,130.957715 83.8241449,132 L57.9433728,132 C58.1777756,129.131378 57.7676872,123.909483 57.2285141,119.555861 C56.7771839,115.908311 56.2382439,112.877263 55.9099401,112.367261 C55.8924648,112.33941 55.8747564,112.311337 55.857281,112.283263 C54.8085266,110.652772 54,109.812349 54,109.812349 L87,109 Z" id="Fill-3" fill="#F4C5BE"></path>
            <path d="M37,83 C30.1070796,81.1770343 32.7053565,77.4909159 30.413001,63.6909623 C28.1204497,49.8907621 36.1198153,61.7158774 36.1198153,61.7158774 L37,83 Z" id="Fill-6" fill="#F4C5BE"></path>
            <path d="M106,59.7617851 C105.577009,66.8662673 103.008343,92.4274694 95.6756004,104.555521 C94.6150748,106.322338 90.0538395,109.277235 84.6217542,111.70309 C84.327245,113.525235 83.9903148,116.369476 83.7143344,119.398307 C83.4995475,119.490846 83.2852482,119.57702 83.0643663,119.669315 C78.4848461,121.571514 73.481847,123 69.5030475,123 C65.4323358,123 60.2825697,121.510066 55.6167446,119.533688 C55.144506,115.526095 54.5805989,112.19541 54.23733,111.635277 C48.8603433,109.228027 44.3727353,106.303732 43.3183046,104.555521 C35.9919012,92.4274694 33.423235,66.8662673 33,59.7617851 C34.4774219,35.8320188 50.2582867,17 69.5030475,17 C88.7417133,17 104.522334,35.8320188 106,59.7617851" id="Fill-9" fill="#000000" opacity="0.218805804" style="mix-blend-mode: multiply;"></path>
            <path d="M106,56.4251714 C106,57.3363666 105.975451,58.2598023 105.932671,59.1893585 L105.932671,59.2263253 C105.920275,59.4662423 105.908122,59.743371 105.889892,60.0572216 C105.468177,67.1617038 102.907017,92.722906 95.5966377,104.850957 C94.5393114,106.617775 89.9918357,109.572916 84.5758941,111.998527 C79.6125368,114.227062 73.9221764,116 69.5030383,116 C65.040878,116 59.2771124,114.196216 54.2831291,111.930713 C48.9226059,109.523709 44.4485355,106.599414 43.3970426,104.850957 C36.0929835,92.722906 33.531823,67.1617038 33.1101078,60.0572216 C33.091635,59.743371 33.0794818,59.4662423 33.0670855,59.2263253 L33.0670855,59.1893585 C33.0247925,58.2598023 33,57.3363666 33,56.4251714 C33,30.7839153 49.3445642,10 69.5030383,10 C89.6554358,10 106,30.7839153 106,56.4251714" id="Fill-12" fill="#F4C5BE"></path>
            <path d="M106,83 C112.89278,81.1770343 110.294678,77.4909159 112.587052,63.6909623 C114.879426,49.8907621 106.880192,61.7158774 106.880192,61.7158774 L106,83 Z" id="Fill-15" fill="#F4C5BE"></path>
            <path d="M135.995349,143.105372 L134.319717,179 L9.48498842,175.550636 L7.0257011,143.115628 C6.70720895,138.909968 9.37666622,135.042774 13.484941,133.783176 C20.5226464,131.622959 32.5498961,128.531352 48.435657,126.975048 C52.7981777,126.548181 57.4532928,126.235846 62.3733615,126.090057 C67.4687379,125.93914 72.8452539,125.970398 78.4819922,126.240974 C83.1156919,126.454408 87.9242013,126.834387 92.8975595,127.407042 C103.257643,128.588495 114.318958,130.602924 125.95326,133.736289 C130.119804,134.85547 136.191824,138.873582 135.995349,143.105372" id="Fill-18" fill="#F4C5BE"></path>
            <path d="M135.995349,142.75749 L134.51644,175.671969 L89.7372907,175.746302 L58.1121906,176 L9.33408439,174.400183 L7.0257011,142.768146 C6.70720895,138.398965 9.37666622,134.381409 13.484941,133.072837 C20.5226464,130.828627 32.5498961,127.616815 48.435657,126 C55.0490381,134.121876 72.2879549,149.900601 92.8975595,126.448791 C103.257643,127.67618 114.318958,129.768932 125.95326,133.024127 C130.119804,134.186823 136.191824,138.361164 135.995349,142.75749" id="Fill-21" fill="#9169DB"></path>
            <path d="M115.061196,45.4367023 C115.653915,44.4688341 116,43.3447806 116,42.1404719 C116,40.9943122 115.689897,39.918556 115.149155,38.9831263 C115.359555,38.3535795 115.476249,37.6836647 115.476249,36.9868381 C115.476249,34.3919998 113.893752,32.1580696 111.609588,31.1116282 C111.630828,30.9020996 111.643322,30.6899279 111.643322,30.4748728 C111.643322,28.2853954 110.515858,26.3527827 108.792428,25.1722623 C109.14451,24.3841273 109.341167,23.5166982 109.341167,22.6045762 C109.341167,19.0079895 106.309358,16.0923706 102.569137,16.0923706 C102.306762,16.0923706 102.049134,16.110392 101.794255,16.1382651 C101.377454,14.179221 100.042588,12.5452827 98.2436939,11.6581502 C98.001559,8.27349498 95.0766999,5.59840147 91.495403,5.59840147 C89.2819556,5.59840147 87.3223875,6.62417837 86.0867251,8.20357203 C84.8510627,6.62417837 82.8917444,5.59840147 80.6780471,5.59840147 C80.6533089,5.59840147 80.6293203,5.60176546 80.6043322,5.60200575 C80.1430515,2.43745159 77.3238922,0 73.9060175,0 C70.8489713,0 68.2674489,1.9484715 67.4255992,4.62356501 C66.442067,4.08796962 65.3076064,3.77848247 64.0964324,3.77848247 C63.2410892,3.77848247 62.4257269,3.93755118 61.6723352,4.21580127 C60.4451687,2.55447041 58.4323759,1.46694025 56.1519603,1.46694025 C52.411739,1.46694025 49.3796809,4.3825591 49.3796809,7.9789055 C49.3796809,8.40469062 49.4254091,8.81990319 49.5063706,9.22286123 C48.3904013,8.44385708 47.0218021,7.9789055 45.5370082,7.9789055 C42.2660637,7.9789055 39.5368615,10.2092314 38.9039125,13.1743489 C37.0575406,14.3375689 35.8356216,16.3415462 35.8356216,18.622332 C35.8356216,18.6730321 35.8423684,18.7220503 35.8436178,18.7725101 C35.3800883,18.6759155 34.9003164,18.622332 34.407051,18.622332 C30.6670795,18.622332 27.6350214,21.5379508 27.6350214,25.1342972 C27.6350214,27.6205267 29.0848319,29.7797282 31.2150689,30.87711 C29.8941971,32.0655599 29.0638419,33.7518804 29.0638419,35.6285067 C29.0638419,35.7008325 29.0725878,35.7709957 29.0750866,35.8428409 C26.1579738,36.5682615 24,39.1087954 24,42.1404719 C24,44.2126902 25.0100197,46.0549557 26.5787737,47.2474904 C26.5735262,47.7249368 26.6172554,48.2095918 26.7262036,48.6959287 C26.8296544,49.1565552 26.9835812,49.5936337 27.1772391,50.0064434 C25.4143274,51.8501507 25.4570571,54.7169916 27.3164229,56.5049527 C28.4948625,57.638137 30.125587,58.0694487 31.650112,57.8029726 C36.8708793,60.4622073 36.0335275,73.6939843 36.0335275,73.6939843 L39.8804482,76 C38.1397759,64.6241847 38.3634196,57.0359827 39.4753908,51.9714946 C42.0799022,51.7103048 44.2381259,50.0271079 45.1132098,47.7456014 C46.3551192,49.1308447 48.189247,50.0110088 50.2400217,50.0110088 C53.6843838,50.0110088 56.5215346,47.5363131 56.9498309,44.3361967 C57.6207619,44.5500504 58.3356719,44.6704332 59.0813173,44.6704332 C60.2907422,44.6704332 61.4242032,44.3616669 62.4069858,43.827273 C65.726907,44.5721567 68.6927467,45.1269748 71.3429864,44.601952 C71.5941169,44.5774429 71.8385007,44.5514921 72.081885,44.5255414 C73.3050533,46.2152259 75.337087,47.3234205 77.6404916,47.3234205 C80.0865784,47.3234205 82.2230624,46.0724965 83.4134963,44.2035594 C84.5414599,45.011638 85.9350472,45.4958124 87.4500767,45.4958124 C89.096044,45.4958124 90.603827,44.9304217 91.777269,43.991628 C92.6071243,46.685704 95.1968928,48.6524372 98.2676825,48.6524372 C99.5760603,48.6524372 100.793481,48.2896067 101.829239,47.6715936 C103.952979,52.357873 105.131418,60.8002883 102.805525,76 L106.658442,73.6939843 C106.658442,73.6939843 105.827587,60.6789444 110.902174,57.8668884 C111.577603,57.8255594 112.245785,57.6544764 112.859743,57.3445087 C113.029663,57.3389821 113.199332,57.3324944 113.378497,57.3452296 C113.378497,57.3452296 113.39224,57.2277302 113.41298,57.0117139 C113.633625,56.8608149 113.847024,56.6950182 114.04468,56.5049527 C115.822584,54.7953246 115.942277,52.0976443 114.408757,50.2524953 C115.559959,48.8674923 115.775607,47.0040817 115.061196,45.4367023" id="Fill-24" fill="#2F3A5B"></path>
            <path d="M89.443474,205 L55.556526,205 C51.9355131,205 49,202.128336 49,198.586082 L49,161.973169 L49,135.414164 C49,131.871664 51.9355131,129 55.556526,129 L89.443474,129 C93.0647392,129 96,131.871664 96,135.414164 L96,198.586082 C96,202.128336 93.0647392,205 89.443474,205" id="Fill-27" fill="#F7F7F7"></path>
            <path d="M60,139.5 C60,141.433112 58.4331123,143 56.5,143 C54.5668877,143 53,141.433112 53,139.5 C53,137.566888 54.5668877,136 56.5,136 C58.4331123,136 60,137.566888 60,139.5" id="Fill-30" fill="#EAEAEA"></path>
            <path d="M61.6853049,166.170412 C51.531775,167.116051 47.6386036,164.529499 47.6386036,164.529499 L47.6386036,159 C39.74691,162.882514 36.9117936,168.337044 36.4222059,169.392217 L36,169.575319 L38.3064901,187.489906 L49.8640752,188.366881 L52.0154801,188.530365 L52.0339299,188.532467 C57.093181,188.615377 62.4053812,189.539763 64.5891401,188.535503 C67.5178424,187.187927 65.5645721,165.809112 61.6853049,166.170412" id="Fill-33" fill="#F4C5BE"></path>
            <path d="M80.314746,166.170412 C90.4679884,167.116051 94.3614194,164.529499 94.3614194,164.529499 L94.3614194,159 C102.253097,162.882514 105.088208,168.337044 105.577528,169.392217 L106,169.575319 L103.693514,187.489906 L92.1359523,188.366881 L89.9845516,188.530365 L89.9661019,188.532467 C84.9065935,188.615377 79.5946712,189.539763 77.4109166,188.535503 C74.4822201,187.187927 76.4352192,165.809112 80.314746,166.170412" id="Fill-36" fill="#F4C5BE"></path>
            <polygon id="Fill-39" fill="#785AB1" points="0 178.997557 37.9412888 172 40 190.510693 2.56181384 212"></polygon>
            <polygon id="Fill-42" fill="#785AB1" points="146 179.407134 105.569742 172 103 190.620452 144.391771 212"></polygon>
        </g>
    </g>
</svg>