<?xml version="1.0" encoding="UTF-8"?>
<svg width="24px" height="24px" viewBox="0 0 24 24" version="1.1" xmlns="http://www.w3.org/2000/svg" xmlns:xlink="http://www.w3.org/1999/xlink">
    <title>Icon/Close/Fill</title>
    <g id="Icon/Close/Fill" stroke="none" strokeWidth="1" fill="none" fillRule="evenodd">
        <rect id="Rectangle" x="0" y="0" width="24" height="24"></rect>
        <path d="M18.19,17.54 C18.2374568,17.5789896 18.2722622,17.6311977 18.29,17.69 C18.3048464,17.7456942 18.3048464,17.8043058 18.29,17.86 C18.3061708,17.9189104 18.3061708,17.9810896 18.29,18.04 C18.2722622,18.0988023 18.2374568,18.1510104 18.19,18.19 C18.1079443,18.2798382 17.9916698,18.3307083 17.87,18.330016 C17.7453579,18.3310511 17.6258632,18.2803564 17.54,18.19 L12,12.65 L6.46,18.19 C6.42101038,18.2374568 6.36880233,18.2722622 6.31,18.29 C6.25430576,18.3048464 6.19569424,18.3048464 6.14,18.29 C6.01511486,18.2922885 5.89514229,18.2413911 5.81,18.15 C5.71964362,18.0641368 5.66894891,17.9446421 5.66998397,17.82 C5.6692917,17.6983302 5.72016179,17.5820557 5.81,17.5 L11.34,12 L5.81,6.46 C5.71964362,6.37413681 5.66894891,6.25464212 5.66998397,6.13 C5.6712384,6.00582436 5.72157011,5.88718532 5.81,5.8 C5.89573081,5.71674528 6.01049642,5.67 6.13,5.67 C6.25237416,5.67060486 6.37009285,5.71697888 6.46,5.8 L12,11.34 L17.54,5.8 C17.6299072,5.71697888 17.7476258,5.67060486 17.87,5.67 C17.9891024,5.67212501 18.1031596,5.71846076 18.19,5.8 C18.2359265,5.84434468 18.2702647,5.89928578 18.29,5.96 C18.3048464,6.01569424 18.3048464,6.07430576 18.29,6.13 C18.3040356,6.18917918 18.3040356,6.25082082 18.29,6.31 C18.2722622,6.36880233 18.2374568,6.42101038 18.19,6.46 L12.65,12 L18.19,17.54 Z" id="Path" stroke="#1F1F27" fill="#1F1F27"></path>
    </g>
</svg>