
<svg width="24px" height="24px" viewBox="0 0 24 24" version="1.1" xmlns="http://www.w3.org/2000/svg" xmlns:xlink="http://www.w3.org/1999/xlink">
    <title>Icon/BasketClosed/Fill</title>
    <g id="Icon/BasketClosed/Fill" stroke="none" strokeWidth="1" fill="none" fillRule="evenodd">
        <rect id="Rectangle" x="0" y="0" width="24" height="24"></rect>
        <path d="M19.85,5.45 L14.63,5.45 C14.5313858,4.82652463 14.2076256,4.26083363 13.72,3.86 C12.9881312,3.24435845 11.9828799,3.06717771 11.084632,3.39550277 C10.1863842,3.72382784 9.53234421,4.50750817 9.37,5.45 L4.15,5.45 C3.90029795,5.46020451 3.70020451,5.66029795 3.69,5.91 C3.69607816,6.03311662 3.74569498,6.15007053 3.83,6.24 C3.91684036,6.32153924 4.0308976,6.36787499 4.15,6.37 L4.89,6.37 L4.89,18.47 C4.89921657,19.0804385 5.14266235,19.6639924 5.57,20.1 C6.00344538,20.5299596 6.58947608,20.7708434 7.2,20.7700218 L16.8,20.7700218 C17.4117287,20.7726597 17.999315,20.5315137 18.4328139,20.0998914 C18.8663128,19.6682691 19.1100058,19.0817345 19.11,18.47 L19.11,6.37 L19.85,6.37 C19.9703737,6.37456131 20.0869116,6.32721781 20.17,6.24 C20.2584299,6.15281468 20.3087616,6.03417564 20.31,5.91 C20.2997955,5.66029795 20.099702,5.46020451 19.85,5.45 Z M8.77,17.07 L8.77,8.76 C8.78020451,8.51029795 8.98029795,8.31020451 9.23,8.3 C9.35417564,8.3012384 9.47281468,8.35157011 9.56,8.44 C9.64325472,8.52573081 9.68987825,8.64049642 9.69,8.76 L9.69,17.07 C9.68754437,17.1920107 9.64141974,17.3090963 9.56,17.4 C9.47180033,17.4857039 9.35295517,17.5325217 9.23,17.53 C9.10962629,17.5345613 8.99308844,17.4872178 8.91,17.4 C8.82157011,17.3128147 8.7712384,17.1941756 8.77,17.07 L8.77,17.07 Z M11.54,17.07 L11.54,8.76 C11.5401218,8.64049642 11.5867453,8.52573081 11.67,8.44 C11.7566218,8.3508018 11.8756631,8.30046841 12,8.30046841 C12.1243369,8.30046841 12.2433782,8.3508018 12.33,8.44 C12.4132547,8.52573081 12.4598782,8.64049642 12.46,8.76 L12.46,17.07 C12.4575444,17.1920107 12.4114197,17.3090963 12.33,17.4 C12.1448975,17.575242 11.8551025,17.575242 11.67,17.4 C11.5885803,17.3090963 11.5424556,17.1920107 11.54,17.07 L11.54,17.07 Z M15.23,17.07 C15.2275444,17.1920107 15.1814197,17.3090963 15.1,17.4 C14.9148975,17.575242 14.6251025,17.575242 14.44,17.4 C14.3585803,17.3090963 14.3124556,17.1920107 14.31,17.07 L14.31,8.76 C14.3101218,8.64049642 14.3567453,8.52573081 14.44,8.44 C14.5266218,8.3508018 14.6456631,8.30046841 14.77,8.30046841 C14.8943369,8.30046841 15.0133782,8.3508018 15.1,8.44 C15.1832547,8.52573081 15.2298782,8.64049642 15.23,8.76 L15.23,17.07 Z" id="Shape" fill="#F8063F"></path>
    </g>
</svg>