<svg width="24px" height="24px" viewBox="0 0 24 24" version="1.1" xmlns="http://www.w3.org/2000/svg" xmlns:xlink="http://www.w3.org/1999/xlink">
    <title>Icon/Edit/Fill</title>
    <g id="Icon/Edit/Fill" stroke="none" strokeWidth="1" fill="none" fillRule="evenodd">
        <rect id="Rectangle" x="0" y="0" width="24" height="24"></rect>
        <path d="M16.3214693,5.15924159 L12.3386103,9.14210058 C11.5003205,9.98039032 11.5003205,11.3395265 12.3386103,12.1778163 C13.1769,13.016106 14.5360362,13.016106 15.374326,12.1778163 L18.4667084,9.03686244 L19.276304,8.29210018 L19.276304,18.2006762 C19.2805949,18.6979558 19.0849787,19.1761366 18.7333354,19.5277799 C18.3816921,19.8794232 17.9035112,20.0750394 17.4062317,20.0707485 L6.17003598,20.0707485 C5.6734207,20.072841 5.19652034,19.8765186 4.84535697,19.5253552 C4.4941936,19.1741919 4.29787118,18.6972915 4.30001741,18.2006762 L4.30001741,6.99686149 C4.32197708,5.97859779 5.15154438,5.1633953 6.17003598,5.15924159 L16.3214693,5.15924159 Z M19.8509947,3.20019306 C19.9562433,3.1989036 20.0607333,3.21815175 20.1586139,3.25685975 C20.2572752,3.30384363 20.3475295,3.36674812 20.4257569,3.44305032 L21.0329,4.04209821 C21.1095055,4.11836229 21.1700614,4.20919615 21.2109953,4.30924119 C21.2608665,4.40482804 21.2911414,4.50941393 21.300043,4.61686038 C21.2991449,4.8332024 21.211688,5.0401837 21.0571857,5.19162256 L15.9248024,10.3240059 C15.8086208,10.4300237 15.6659911,10.5027369 15.5119451,10.5344822 C15.4563022,10.6801854 15.3499464,10.8009137 15.2124211,10.8744823 L13.6743252,11.6840065 C13.581692,11.7317488 13.4790136,11.7567246 13.3748012,11.7568676 C13.2049614,11.7574592 13.0418602,11.6904712 12.9214677,11.5706731 C12.7256026,11.3740773 12.6767651,11.0745402 12.8000391,10.8259109 L13.6095632,9.28781493 C13.6767193,9.158023 13.789003,9.05725551 13.9252777,9.00448147 C13.9443066,8.83755178 14.0217228,8.68271933 14.1438492,8.56733841 L19.2762325,3.44305032 C19.3493769,3.36441845 19.4374357,3.30112615 19.5352803,3.25685975 C19.6356853,3.21710186 19.7430303,3.19783481 19.8509947,3.20019306 Z" id="Shape" fill="#1F1F27"></path>
    </g>
</svg>