<?xml version="1.0" encoding="UTF-8"?>
<svg width="24px" height="24px" viewBox="0 0 24 24" version="1.1" xmlns="http://www.w3.org/2000/svg" xmlns:xlink="http://www.w3.org/1999/xlink">
    <title>Icon/Presentation/Fill</title>
    <g id="Icon/Presentation/Fill" stroke="none" strokeWidth="1" fill="none" fillRule="evenodd">
        <rect id="Rectangle" x="0" y="0" width="24" height="24"></rect>
        <path d="M18.44,4.15 L5.52,4.15 C4.90913386,4.15715278 4.3248418,4.40090652 3.89,4.83 C3.45729725,5.26243183 3.21290087,5.84826432 3.21,6.46 L3.21,13.74 C3.212433,14.3547679 3.45670068,14.943884 3.89,15.38 C4.32344538,15.8099596 4.90947608,16.0508434 5.52,16.05 L9.83,16.05 L6.94,19.05 C6.8956868,19.0917392 6.86148492,19.143042 6.84,19.2 C6.82966658,19.2561956 6.82966658,19.3138044 6.84,19.37 C6.83063293,19.4296344 6.83063293,19.4903656 6.84,19.55 C6.8662041,19.6044022 6.89986107,19.6548877 6.94,19.7 C6.98427126,19.7412155 7.03492751,19.7749863 7.09,19.8 C7.14619558,19.8103334 7.20380442,19.8103334 7.26,19.8 C7.38742336,19.8003125 7.5097419,19.749946 7.6,19.66 L11.13,16 L12.87,16 L16.4,19.69 C16.4902581,19.779946 16.6125766,19.8303125 16.74,19.8300014 L16.91,19.8300014 C16.9650725,19.8049863 17.0157287,19.7712155 17.06,19.73 C17.0967642,19.6823743 17.1301779,19.6322538 17.16,19.58 C17.1695335,19.5203787 17.1695335,19.4596213 17.16,19.4 C17.1703334,19.3438044 17.1703334,19.2861956 17.16,19.23 C17.1349863,19.1749275 17.1012155,19.1242713 17.06,19.08 L14.14,16.08 L18.45,16.08 C18.7587281,16.0886339 19.0656925,16.0306517 19.35,15.91 C19.633244,15.7995845 19.889138,15.6289885 20.1,15.41 C20.3187211,15.1968527 20.4921828,14.9417619 20.61,14.66 C20.7290783,14.3749016 20.7902652,14.0689671 20.7900009,13.76 L20.7900009,6.45 C20.7817984,6.14742082 20.7173686,5.84900903 20.6,5.57 C20.484726,5.28686764 20.3109305,5.03128599 20.09,4.82 C19.8754294,4.60079056 19.6162404,4.43027148 19.33,4.32 C19.0466154,4.20803528 18.7447012,4.15036627 18.44,4.15 Z M17.22,7.73 L12.53,12.1 L10.13,9.6 L7.36,12.53 L7.21,12.64 C7.14709724,12.6504783 7.08290276,12.6504783 7.02,12.64 C6.96419447,12.653971 6.90580553,12.653971 6.85,12.64 C6.79945228,12.6124649 6.75244055,12.5788851 6.71,12.54 C6.6656868,12.4982608 6.63148492,12.446958 6.61,12.39 C6.59966658,12.3338044 6.59966658,12.2761956 6.61,12.22 C6.59973679,12.1604389 6.59973679,12.0995611 6.61,12.04 C6.63148492,11.983042 6.6656868,11.9317392 6.71,11.89 L10.11,8.2 L12.55,10.75 L16.55,7 C16.5889896,6.95254315 16.6411977,6.91773778 16.7,6.9 C16.7556942,6.88515357 16.8143058,6.88515357 16.87,6.9 C16.9291792,6.88596443 16.9908208,6.88596443 17.05,6.9 C17.1046878,6.92036807 17.1529963,6.95487414 17.19,7 C17.2465688,7.04105869 17.2913908,7.09622421 17.32,7.16 C17.3350024,7.22582265 17.3350024,7.29417735 17.32,7.36 C17.3346682,7.42585984 17.3346682,7.49414016 17.32,7.56 C17.2987936,7.62297786 17.2647416,7.68086638 17.22,7.73 Z" id="Shape" fill="#1F1F27"></path>
    </g>
</svg>