<?xml version="1.0" encoding="UTF-8"?>
<svg width="24px" height="24px" viewBox="0 0 24 24" version="1.1" xmlns="http://www.w3.org/2000/svg" xmlns:xlink="http://www.w3.org/1999/xlink">
    <title>Icon/Entrance/Fill</title>
    <g id="Icon/Entrance/Fill" stroke="none" strokeWidth="1" fill="none" fillRule="evenodd">
        <rect id="Rectangle" x="0" y="0" width="24" height="24"></rect>
        <path d="M17.31,2.76991349 C17.9217345,2.76991349 18.5082691,3.01368718 18.9398914,3.44718609 C19.3715137,3.88068499 19.6126597,4.46827128 19.6100218,5.08 L19.58,5.08 L19.58,18.92 C19.5826597,19.5317287 19.3415137,20.119315 18.9098914,20.5528139 C18.4782691,20.9863128 17.8917345,21.23 17.28,21.23 L9,21.23 C7.72649798,21.2245225 6.6954775,20.193502 6.69,18.92 L6.69,13.39 L9.11,13.39 L8.7,13.79 C8.18058321,14.3284912 8.18058321,15.1815088 8.7,15.72 C8.82493214,15.8581358 8.97850505,15.9673432 9.15,16.04 C9.32478625,16.1109222 9.5113811,16.1482411 9.7,16.15 C10.071909,16.1580183 10.4317183,16.0176927 10.7,15.76 L13.44,13 L13.56,12.86 L13.62,12.76 C13.7525483,12.5495784 13.8283423,12.3084158 13.84,12.06 C13.8499938,11.8690662 13.8193168,11.6781874 13.75,11.5 C13.6790728,11.3242126 13.5736679,11.1644052 13.44,11.03 L10.68,8.25 C10.4127288,7.98959515 10.0531308,7.84575596 9.68,7.85 C9.11557468,7.83825716 8.60091565,8.17148772 8.38065801,8.69129577 C8.16040036,9.21110381 8.27896734,9.81265048 8.68,10.21 L9.08,10.61 L6.66,10.61 L6.66,5.08 C6.66263674,4.4629519 6.91098007,3.87237532 7.3501088,3.43887645 C7.78923752,3.00537757 8.38296925,2.76467494 9,2.76991349 L17.31,2.76991349 Z M9.63,8.82 C9.68917918,8.80596443 9.75082082,8.80596443 9.81,8.82 C9.86880233,8.83773778 9.92101038,8.87254315 9.96,8.92 L12.73,11.69 C12.7743132,11.7317392 12.8085151,11.783042 12.83,11.84 C12.8395335,11.8996213 12.8395335,11.9603787 12.83,12.02 C12.8140761,12.1358509 12.7693823,12.2458666 12.7,12.34 L10,15.1 C9.91413681,15.1903564 9.79464212,15.2410511 9.67,15.240016 C9.54833019,15.2407083 9.43205571,15.1898382 9.35,15.1 C9.25860894,15.0148577 9.20771148,14.8948851 9.21,14.77 C9.2092917,14.6483302 9.26016179,14.5320557 9.35,14.45 L11.35,12.45 L4.9,12.45 C4.83709724,12.4604441 4.77290276,12.4604441 4.71,12.45 C4.65232797,12.4299281 4.6007095,12.3955157 4.56,12.35 C4.51258297,12.30885 4.47499456,12.2575931 4.45,12.2 C4.42815864,12.1356545 4.41799876,12.0679219 4.42,12 C4.41046652,11.9403787 4.41046652,11.8796213 4.42,11.82 C4.44152486,11.7604867 4.47970864,11.7084179 4.53,11.67 C4.56700368,11.6248741 4.61531218,11.5903681 4.67,11.57 L11.31,11.57 L9.31,9.57 C9.22016179,9.48794429 9.1692917,9.37166981 9.17,9.25 C9.16894891,9.12535788 9.21964362,9.00586319 9.31,8.92 C9.34898962,8.87254315 9.40119767,8.83773778 9.46,8.82 C9.51569424,8.80515357 9.57430576,8.80515357 9.63,8.82 Z" id="Shape" fill="#1F1F27"></path>
    </g>
</svg>