<?xml version="1.0" encoding="UTF-8"?>
<svg width="24px" height="24px" viewBox="0 0 24 24" version="1.1" xmlns="http://www.w3.org/2000/svg" xmlns:xlink="http://www.w3.org/1999/xlink">
    <title>Icon/Сalendar/Line</title>
    <g id="Icon/Сalendar/Line" stroke="none" strokeWidth="1" fill="none" fillRule="evenodd">
        <rect id="Rectangle" x="0" y="0" width="24" height="24"></rect>
        <path d="M17.79,3.69 C18.039702,3.70020451 18.2397955,3.90029795 18.25,4.15 L18.25,4.15 L18.25,5.54 L18.46,5.54 C19.0734657,5.53732691 19.6625776,5.77984273 20.0963674,6.21363257 C20.5301573,6.64742241 20.7726731,7.23653435 20.7700219,7.85 L20.7700219,7.85 L20.7700219,18 C20.7645225,19.273502 19.733502,20.3045225 18.46,20.31 L18.46,20.31 L5.54,20.31 C4.26649798,20.3045225 3.2354775,19.273502 3.22997813,18 L3.22997813,18 L3.22997813,7.85 C3.22732691,7.23653435 3.46984273,6.64742241 3.90363257,6.21363257 C4.33742241,5.77984273 4.92653435,5.53732691 5.54,5.54 L5.54,5.54 L5.78,5.54 L5.78,4.15 C5.78012175,4.03049642 5.82674528,3.91573081 5.91,3.83 C5.99662184,3.7408018 6.11566311,3.69046841 6.24,3.69046841 C6.36433689,3.69046841 6.48337816,3.7408018 6.57,3.83 C6.65325472,3.91573081 6.69987825,4.03049642 6.7,4.15 L6.7,4.15 L6.7,5.54 L17.33,5.54 L17.33,4.15 C17.3301218,4.03049642 17.3767453,3.91573081 17.46,3.83 C17.5471853,3.74157011 17.6658244,3.6912384 17.79,3.69 Z M19.83,11.18 L4.13,11.18 L4.13,17.98 C4.13058848,18.3541333 4.27777954,18.7131358 4.54,18.98 C4.80539592,19.2432753 5.16624755,19.387616 5.54,19.38 L5.54,19.38 L18.46,19.38 C18.8277283,19.3826648 19.1813112,19.2384496 19.4422783,18.97936 C19.7032453,18.7202704 19.85,18.367738 19.85,18 L19.85,18 L19.83,11.18 Z M8.75,16.09 C9.00405098,16.09 9.21,16.295949 9.21,16.55 L9.21,16.55 L9.21,17.47 C9.21269027,17.5937229 9.16541638,17.7133112 9.07885634,17.801753 C8.9922963,17.8901948 8.87375213,17.9400292 8.75,17.94 L8.75,17.94 L7.83,17.94 C7.70624787,17.9400292 7.5877037,17.8901948 7.50114366,17.801753 C7.41458362,17.7133112 7.36730973,17.5937229 7.37,17.47 L7.37,17.47 L7.37,16.55 C7.37,16.295949 7.57594902,16.09 7.83,16.09 L7.83,16.09 Z M12.44,16.09 C12.694051,16.09 12.9,16.295949 12.9,16.55 L12.9,16.55 L12.9,17.47 C12.9026903,17.5937229 12.8554164,17.7133112 12.7688563,17.801753 C12.6822963,17.8901948 12.5637521,17.9400292 12.44,17.94 L12.44,17.94 L11.52,17.94 C11.3962479,17.9400292 11.2777037,17.8901948 11.1911437,17.801753 C11.1045836,17.7133112 11.0573097,17.5937229 11.06,17.47 L11.06,17.47 L11.06,16.55 C11.06,16.295949 11.265949,16.09 11.52,16.09 L11.52,16.09 Z M16.14,16.09 C16.3918216,16.0953033 16.5946967,16.2981784 16.6,16.55 L16.6,16.55 L16.6,17.47 C16.6000579,17.7257182 16.3956603,17.9345592 16.14,17.94 L16.14,17.94 L15.21,17.94 C14.9543397,17.9345592 14.7499421,17.7257182 14.75,17.47 L14.75,17.47 L14.75,16.55 C14.7553033,16.2981784 14.9581784,16.0953033 15.21,16.09 L15.21,16.09 Z M8.75,12.4 C8.87282525,12.3972388 8.99143921,12.4448158 9.07831172,12.5316883 C9.16518423,12.6185608 9.21276117,12.7371747 9.21,12.86 L9.21,12.86 L9.21,13.78 C9.21276117,13.9028253 9.16518423,14.0214392 9.07831172,14.1083117 C8.99143921,14.1951842 8.87282525,14.2427612 8.75,14.24 L8.75,14.24 L7.83,14.24 C7.70717475,14.2427612 7.58856079,14.1951842 7.50168828,14.1083117 C7.41481577,14.0214392 7.36723883,13.9028253 7.37,13.78 L7.37,13.78 L7.37,12.86 C7.36723883,12.7371747 7.41481577,12.6185608 7.50168828,12.5316883 C7.58856079,12.4448158 7.70717475,12.3972388 7.83,12.4 L7.83,12.4 Z M12.44,12.4 C12.5628253,12.3972388 12.6814392,12.4448158 12.7683117,12.5316883 C12.8551842,12.6185608 12.9027612,12.7371747 12.9,12.86 L12.9,12.86 L12.9,13.78 C12.9027612,13.9028253 12.8551842,14.0214392 12.7683117,14.1083117 C12.6814392,14.1951842 12.5628253,14.2427612 12.44,14.24 L12.44,14.24 L11.52,14.24 C11.3971747,14.2427612 11.2785608,14.1951842 11.1916883,14.1083117 C11.1048158,14.0214392 11.0572388,13.9028253 11.06,13.78 L11.06,13.78 L11.06,12.86 C11.0572388,12.7371747 11.1048158,12.6185608 11.1916883,12.5316883 C11.2785608,12.4448158 11.3971747,12.3972388 11.52,12.4 L11.52,12.4 Z M16.14,12.4 C16.394051,12.4 16.6,12.605949 16.6,12.86 L16.6,12.86 L16.6,13.78 C16.6,14.034051 16.394051,14.24 16.14,14.24 L16.14,14.24 L15.21,14.24 C14.955949,14.24 14.75,14.034051 14.75,13.78 L14.75,13.78 L14.75,12.86 C14.75,12.7380004 14.7984641,12.6209976 14.8847309,12.5347309 C14.9709976,12.4484641 15.0880004,12.4 15.21,12.4 L15.21,12.4 Z M5.78,6.46 L5.54,6.46 C4.77459217,6.46544795 4.15544795,7.08459217 4.15,7.85 L4.15,7.85 L4.17,10.26 L19.87,10.26 L19.87,7.85 C19.8645521,7.08459217 19.2454078,6.46544795 18.48,6.46 L18.48,6.46 L18.25,6.46 L18.25,7.85 C18.2483221,7.97116567 18.1978485,8.08653393 18.11,8.17 C18.0279443,8.25983821 17.9116698,8.3107083 17.79,8.31 C17.6658244,8.3087616 17.5471853,8.25842989 17.46,8.17 C17.3767453,8.08426919 17.3301218,7.96950358 17.33,7.85 L17.33,7.85 L17.33,6.46 L6.7,6.46 L6.7,7.85 C6.69832206,7.97116567 6.64784845,8.08653393 6.56,8.17 C6.47794429,8.25983821 6.36166981,8.3107083 6.24,8.31 C6.11582436,8.3087616 5.99718532,8.25842989 5.91,8.17 C5.82674528,8.08426919 5.78012175,7.96950358 5.78,7.85 L5.78,7.85 L5.78,6.46 Z" id="Shape" fill="#1F1F27"></path>
    </g>
</svg>