<?xml version="1.0" encoding="UTF-8"?>
<svg width="19px" height="17px" viewBox="0 0 19 17" version="1.1" xmlns="http://www.w3.org/2000/svg" xmlns:xlink="http://www.w3.org/1999/xlink">
    <title>Icon/Сalendar/Fill</title>
    <g id="Symbols" stroke="none" strokeWidth="1" fill="none" fillRule="evenodd">
        <g id="Sidebar/Icon" transform="translate(-13.000000, -14.000000)">
            <g id="Icon/Сalendar/Fill" transform="translate(10.500000, 10.500000)">
                <rect id="Rectangle" x="0" y="0" width="24" height="24"></rect>
                <path d="M20.77,10.51 L20.77,18 C20.7645225,19.273502 19.733502,20.3045225 18.46,20.31 L18.46,20.31 L5.54,20.31 C4.26649798,20.3045225 3.2354775,19.273502 3.23,18 L3.23,18 L3.23,10.51 L20.77,10.51 Z M8.77,16.1 L7.84,16.1 C7.71833019,16.0992917 7.60205571,16.1501618 7.52,16.24 C7.43278219,16.3230884 7.38543869,16.4396263 7.39,16.56 L7.39,16.56 L7.39,17.48 C7.3851152,17.6033672 7.43228692,17.7231108 7.52,17.81 C7.60586319,17.9003564 7.72535788,17.9510511 7.85,17.950016 L7.85,17.950016 L8.77,17.950016 C8.88961799,17.9416248 9.0026657,17.8921665 9.09,17.81 C9.18035638,17.7241368 9.23105109,17.6046421 9.23,17.48 L9.23,17.48 L9.23,16.56 C9.23576188,16.4363239 9.18915078,16.3159434 9.10160372,16.2283963 C9.01405665,16.1408492 8.89367611,16.0942381 8.77,16.1 L8.77,16.1 Z M12.46,16.0999927 L11.53,16.0999927 C11.4083302,16.0992917 11.2920557,16.1501618 11.21,16.24 C11.1227822,16.3230884 11.0754387,16.4396263 11.08,16.56 L11.08,16.56 L11.08,17.48 C11.0806049,17.6023742 11.1269789,17.7200928 11.21,17.81 C11.2971853,17.8984299 11.4158244,17.9487616 11.54,17.95 L11.54,17.95 L12.46,17.95 C12.5820234,17.9393496 12.6975425,17.8903415 12.79,17.81 C12.8730211,17.7200928 12.9193951,17.6023742 12.92,17.48 L12.92,17.48 L12.92,16.56 C12.9225217,16.4370448 12.8757039,16.3181997 12.79,16.23 C12.6990963,16.1485803 12.5820107,16.1024556 12.46,16.0999927 L12.46,16.0999927 Z M16.15,16.1 L15.23,16.1 C15.1063239,16.0942381 14.9859434,16.1408492 14.8983963,16.2283963 C14.8108492,16.3159434 14.7642381,16.4363239 14.77,16.56 L14.77,16.56 L14.77,17.48 C14.7706049,17.6023742 14.8169789,17.7200928 14.9,17.81 C14.9871853,17.8984299 15.1058244,17.9487616 15.23,17.95 L15.23,17.95 L16.15,17.95 C16.4073432,17.9446923 16.6146923,17.7373432 16.62,17.48 L16.62,17.48 L16.62,16.56 C16.6187616,16.4358244 16.5684299,16.3171853 16.48,16.23 C16.3900928,16.1469789 16.2723742,16.1006049 16.15,16.1 L16.15,16.1 Z M8.77,12.41 L7.85,12.41 C7.72663282,12.4051152 7.60688922,12.4522869 7.52,12.54 C7.43429614,12.6281997 7.38747834,12.7470448 7.39,12.87 L7.39,12.87 L7.39,13.79 C7.38747834,13.9129552 7.43429614,14.0318003 7.52,14.12 C7.60990715,14.2030211 7.72762584,14.2493951 7.85,14.25 L7.85,14.25 L8.77,14.25 C9.01970205,14.2397955 9.21979549,14.039702 9.23,13.79 L9.23,13.79 L9.23,12.87 C9.22754437,12.7479893 9.18141974,12.6309037 9.1,12.54 C9.01180033,12.4542961 8.89295517,12.4074783 8.77,12.41 L8.77,12.41 Z M12.46,12.41 L11.54,12.41 C11.4170448,12.4074783 11.2981997,12.4542961 11.21,12.54 C11.1285803,12.6309037 11.0824556,12.7479893 11.08,12.87 L11.08,12.87 L11.08,13.79 C11.0742381,13.9136761 11.1208492,14.0340566 11.2083963,14.1216037 C11.2959434,14.2091508 11.4163239,14.2557619 11.54,14.25 L11.54,14.25 L12.46,14.25 C12.5841756,14.2487616 12.7028147,14.1984299 12.79,14.11 C12.8732547,14.0242692 12.9198782,13.9095036 12.92,13.79 L12.92,13.79 L12.92,12.87 C12.9257619,12.7463239 12.8791508,12.6259434 12.7916037,12.5383963 C12.7040566,12.4508492 12.5836761,12.4042381 12.46,12.41 L12.46,12.41 Z M16.15,12.41 L15.23,12.41 C15.1070448,12.4074783 14.9881997,12.4542961 14.9,12.54 C14.8185803,12.6309037 14.7724556,12.7479893 14.77,12.87 L14.77,12.87 L14.77,13.79 C14.7642381,13.9136761 14.8108492,14.0340566 14.8983963,14.1216037 C14.9859434,14.2091508 15.1063239,14.2557619 15.23,14.25 L15.23,14.25 L16.15,14.25 C16.2746421,14.2510511 16.3941368,14.2003564 16.48,14.11 C16.5621665,14.0226657 16.6116248,13.909618 16.62,13.79 L16.62,13.79 L16.62,12.87 C16.6187616,12.7458244 16.5684299,12.6271853 16.48,12.54 C16.3931108,12.4522869 16.2733672,12.4051152 16.15,12.41 L16.15,12.41 Z M17.77,3.69046841 C17.8943369,3.69046841 18.0133782,3.7408018 18.1,3.83 C18.1832547,3.91573081 18.2298782,4.03049642 18.23,4.15 L18.23,5.54 L18.46,5.54 C19.0734657,5.53732691 19.6625776,5.77984273 20.0963674,6.21363257 C20.5301573,6.64742241 20.7726731,7.23653435 20.7700219,7.85 L20.7700219,9.59 L3.22997813,9.59 L3.22997813,7.85 C3.22732691,7.23653435 3.46984273,6.64742241 3.90363257,6.21363257 C4.33742241,5.77984273 4.92653435,5.53732691 5.54,5.54 L5.78,5.54 L5.78,4.15 C5.78012175,4.03049642 5.82674528,3.91573081 5.91,3.83 C5.99662184,3.7408018 6.11566311,3.69046841 6.24,3.69046841 C6.36433689,3.69046841 6.48337816,3.7408018 6.57,3.83 C6.65325472,3.91573081 6.69987825,4.03049642 6.7,4.15 L6.7,5.54 L17.31,5.54 L17.31,4.15 C17.3101218,4.03049642 17.3567453,3.91573081 17.44,3.83 C17.5266218,3.7408018 17.6456631,3.69046841 17.77,3.69046841 Z" id="Shape" fill="#FFFFFF"></path>
            </g>
        </g>
    </g>
</svg>