<?xml version="1.0" encoding="UTF-8"?>
<svg width="24px" height="24px" viewBox="0 0 24 24" version="1.1" xmlns="http://www.w3.org/2000/svg" xmlns:xlink="http://www.w3.org/1999/xlink">
    <title>Icon/Users/Line</title>
    <g id="Icon/Users/Line" stroke="none" stroke-width="1" fill="none" fill-rule="evenodd">
        <rect id="Rectangle" transform="translate(12.000000, 12.000000) scale(-1, 1) translate(-12.000000, -12.000000) " x="0" y="0" width="24" height="24"></rect>
        <path d="M18.4339478,12.3246711 C20.5849016,13.1878828 22.1502464,15.0844004 22.59,17.36 C22.6296667,17.5647633 22.6296667,17.7752367 22.59,17.98 C22.5381218,18.1806849 22.4386473,18.3659133 22.3,18.52 C22.1586371,18.6995486 21.9771014,18.8434071 21.77,18.94 C21.5644194,19.0399669 21.3385937,19.091291 21.11,19.0900238 L2.91,19.0900238 C2.68152249,19.0902392 2.45593038,19.0389682 2.25,18.94 C2.04289864,18.8434071 1.86136288,18.6995486 1.72,18.52 C1.58801431,18.3590572 1.49248726,18.1714148 1.44,17.97 C1.39016632,17.7705908 1.37997349,17.5633368 1.41,17.36 C1.63904414,16.255897 2.137112,15.2254118 2.86,14.36 C3.57333067,13.476811 4.49878802,12.7887386 5.55,12.36 C7.67083882,11.5152269 10.0738765,11.7893233 11.95,13.09 C13.8408653,11.7497146 16.282994,11.4614594 18.4339478,12.3246711 Z M15.91,12.86 C14.7925167,12.8512484 13.697112,13.1711761 12.76,13.78 C13.7877384,14.7446055 14.4872053,16.0071431 14.76,17.39 C14.8206384,17.6724179 14.7890933,17.9668391 14.67,18.23 L21.08,18.2 C21.1734445,18.2013 21.2659008,18.1807541 21.35,18.14 C21.429428,18.1093141 21.5011253,18.0615159 21.56,18 C21.6653199,17.8834716 21.7097607,17.7242254 21.68,17.57 C21.1301269,14.8224013 18.7120578,12.8485529 15.91,12.86 Z M8.09,12.83 C5.28794217,12.8185529 2.8698731,14.7924013 2.32,17.54 C2.3049118,17.6159243 2.3049118,17.6940757 2.32,17.77 C2.33778329,17.8543475 2.37550112,17.9332121 2.43,18 C2.48792429,18.0701428 2.55933362,18.1279504 2.64,18.17 C2.7247521,18.2088453 2.81677242,18.2292943 2.91,18.23 L13.27,18.23 C13.4536057,18.2292845 13.626777,18.1445411 13.74,18 C13.7936213,17.9441702 13.8315648,17.8751822 13.85,17.8 C13.8650882,17.7240757 13.8650882,17.6459243 13.85,17.57 C13.6054808,16.3106131 12.9557896,15.1657518 12,14.31 C11.7662763,14.098088 11.5116366,13.9104588 11.24,13.75 C10.302888,13.1411761 9.20748328,12.8212484 8.09,12.83 Z M15.91,4.92 C16.4368405,4.92126803 16.9516217,5.07778934 17.39,5.37 C17.8334908,5.66362394 18.1811633,6.08083099 18.39,6.57 C18.580316,7.05719318 18.618665,7.5905925 18.5,8.1 C18.2915169,9.15403982 17.4650276,9.97657466 16.41,10.18 C15.3549656,10.3926522 14.2761043,9.94609053 13.68,9.05 C13.3907775,8.61076572 13.2377094,8.09590033 13.2399747,7.57 C13.2439709,7.22713716 13.3117951,6.88801604 13.44,6.57 C13.5738487,6.246217 13.7633795,5.9483828 14,5.69 C14.2491638,5.443979 14.5449469,5.25019006 14.87,5.12 C15.1975492,4.97704576 15.5527923,4.90872979 15.91,4.92 Z M8.09,4.92 C8.61343121,4.92322562 9.12446003,5.07966301 9.56,5.37 C10.0034908,5.66362394 10.3511633,6.08083099 10.56,6.57 C10.7603406,7.05410133 10.8091556,7.58757876 10.7,8.1 C10.4915169,9.15403982 9.66502761,9.97657466 8.61,10.18 C8.067643,10.2881893 7.50507324,10.2252933 7,10 C6.51030525,9.79636499 6.09492749,9.44730805 5.81,9 C5.51778934,8.56162175 5.36126803,8.04684054 5.36,7.52 C5.3653116,6.81371603 5.64922146,6.13808244 6.15,5.64 C6.39739378,5.39179694 6.69365325,5.1976959 7.02,5.07 C7.36045069,4.93863155 7.72655034,4.88730917 8.09,4.92 Z M7.35,5.97 C6.81247296,6.18791543 6.42205354,6.66345251 6.31296798,7.23312153 C6.20388243,7.80279055 6.39100389,8.38892056 6.81,8.79 C7.14860814,9.12957172 7.61050827,9.31721865 8.09,9.31 C8.41632487,9.29364382 8.73155381,9.18625813 9,9 C9.28040148,8.8057379 9.49907801,8.53499553 9.63,8.22 C9.75761017,7.90275179 9.78891365,7.55493535 9.72,7.22 C9.64760353,6.88674155 9.48099628,6.58129491 9.24,6.34 C8.99575788,6.09956176 8.68628996,5.93613488 8.35,5.87 C8.01393294,5.80771562 7.66707873,5.84240104 7.35,5.97 Z M15.27,5.95 C14.9548808,6.08556145 14.6844894,6.30742107 14.49,6.59 C14.2941135,6.88618989 14.192969,7.23496404 14.2,7.59 C14.2021035,7.81714392 14.2497075,8.04156285 14.34,8.25 C14.4329417,8.4604408 14.5614938,8.6532689 14.72,8.82 C14.8805022,8.98372103 15.0751192,9.11005135 15.29,9.19 C15.4883587,9.26271873 15.6988371,9.29666686 15.91,9.29 C16.2664566,9.29669054 16.6160906,9.19180034 16.91,8.99 C17.1958249,8.80164392 17.4159928,8.52905499 17.54,8.21 C17.6721441,7.89405535 17.7069641,7.54585548 17.64,7.21 C17.5699487,6.87296935 17.4031405,6.56367914 17.16,6.32 C16.9130939,6.08322757 16.6047647,5.92040203 16.27,5.85 C15.9339566,5.78715517 15.5869446,5.82185638 15.27,5.95 Z" id="Shape" fill="#1F1F27"></path>
    </g>
</svg>