<?xml version="1.0" encoding="UTF-8"?>
<svg width="24px" height="24px" viewBox="0 0 24 24" version="1.1" xmlns="http://www.w3.org/2000/svg" xmlns:xlink="http://www.w3.org/1999/xlink">
    <title>Icon/Users/Fill</title>
    <g id="Icon/Users/Fill" stroke="none" strokeWidth="1" fill="none" fillRule="evenodd">
        <rect id="Rectangle" transform="translate(12.000000, 12.000000) scale(-1, 1) translate(-12.000000, -12.000000) " x="0" y="0" width="24" height="24"></rect>
        <path d="M12.75,14.27 C14.3850667,13.2299642 16.4275803,13.0623037 18.210361,13.8217843 C19.9931417,14.5812648 21.2872611,16.1703609 21.67,18.07 C21.6900422,18.1419639 21.6900422,18.2180361 21.67,18.29 C21.6495886,18.3643963 21.6118994,18.4329221 21.56,18.49 C21.4967825,18.5534267 21.4221367,18.6043215 21.34,18.64 C21.2544906,18.66003 21.1655094,18.66003 21.08,18.64 L21.08,18.64 L14.67,18.64 C14.7751349,18.3835909 14.8029442,18.1020219 14.75,17.83 C14.46317,16.4666942 13.7651153,15.2241568 12.75,14.27 Z M8.09,13.2799933 C9.20792165,13.278302 10.3022635,13.6013934 11.24,14.21 C11.5116366,14.3704588 11.7662763,14.558088 12,14.77 C12.9559638,15.6132139 13.6063722,16.7487918 13.85,18 C13.8648163,18.072585 13.8648163,18.147415 13.85,18.22 C13.8320201,18.2953588 13.7940144,18.3644601 13.74,18.42 C13.686927,18.4948643 13.6142742,18.5536784 13.53,18.59 C13.4459008,18.6307541 13.3534445,18.6513 13.26,18.65 L13.26,18.65 L2.9,18.65 C2.80666666,18.650247 2.71444442,18.6297532 2.63,18.59 C2.5471742,18.5513223 2.47507586,18.492957 2.42,18.42 C2.36920646,18.3635945 2.3346483,18.2944782 2.32,18.22 C2.2999578,18.1480361 2.2999578,18.0719639 2.32,18 C2.87284387,15.2527204 5.28764839,13.2773517 8.09,13.2799933 Z M8.07,5.34 C8.59972418,5.34281339 9.11727555,5.49912085 9.56,5.79 C10.005811,6.08539618 10.3538566,6.50653135 10.56,7 C10.7762327,7.4898713 10.8389887,8.033757 10.74,8.56 C10.6390798,9.08153957 10.3808292,9.55965214 10,9.93 C9.61667067,10.3057616 9.12862453,10.5567568 8.6,10.65 C8.07873699,10.7478008 7.54029318,10.6922195 7.05,10.49 C6.55893572,10.2842725 6.14090749,9.93591564 5.85,9.49 C5.55663575,9.04897377 5.40327627,8.52964281 5.41,8 C5.41795986,7.29228179 5.70554969,6.61644568 6.21,6.12 C6.45773903,5.87442315 6.74948341,5.6776653 7.07,5.54 C7.38840873,5.41311437 7.72728209,5.3453397 8.07,5.34 Z M15.9299625,6.27011529 C16.8870161,6.27007846 17.6644363,7.04296251 17.67,8 C17.67,8.46586668 17.4842611,8.91250822 17.1539064,9.24098586 C16.8235517,9.5694635 16.3758591,9.7526621 15.91,9.75002861 C14.9530097,9.73898321 14.184568,8.95717181 14.1900288,8.00013389 C14.1955481,7.04309597 14.9729088,6.27015211 15.9299625,6.27011529 Z" id="Shape" fill="#FFFFFF"></path>
    </g>
</svg>