<?xml version="1.0" encoding="UTF-8"?>
<svg width="45px" height="45px" viewBox="0 0 45 45" version="1.1" xmlns="http://www.w3.org/2000/svg" xmlns:xlink="http://www.w3.org/1999/xlink">
    <title>Liveworks Icon</title>
    <g id="Business:-Navigation" stroke="none" strokeWidth="1" fill="none" fillRule="evenodd">
        <g id="Sidebar-Selected-Icon" transform="translate(-22.000000, -30.000000)">
            <g id="Liveworks-Icon" transform="translate(22.000000, 30.000000)">
                <rect id="Rectangle" stroke-opacity="0.1" stroke="#1F1F27" fill="#FFFFFF" x="0.5" y="0.5" width="44" height="44" rx="13"></rect>
                <rect id="Rectangle" fill="#1F1F27" x="7" y="7" width="31" height="31" rx="15.5"></rect>
                <path d="M15.7758621,21.7241379 C15.7758621,18.4431739 18.4440813,15.7758621 21.7245085,15.7758621 C25.0041946,15.7758621 27.6724138,18.4431739 27.6724138,21.7241379 C27.6724138,25.005102 25.0041946,27.6724138 21.7245085,27.6724138 C18.4440813,27.6724138 15.7758621,25.005102 15.7758621,21.7241379 M26.647634,26.0942437 C27.6977103,24.9145042 28.3393422,23.3674251 28.3393422,21.6700374 C28.3393422,17.9922417 25.3467714,15 21.6700377,15 C17.9933041,15 15,17.9922417 15,21.6700374 C15,25.347833 17.9933041,28.3400747 21.6700377,28.3400747 C23.3676122,28.3400747 24.9148615,27.6955806 26.0925309,26.6485526 L29.3299531,29.8856188 C29.4076822,29.9618729 29.5081434,30 29.6086046,30 C29.7083325,30 29.8087937,29.9618729 29.8850562,29.8856188 C30.0383146,29.7323773 30.0383146,29.4845514 29.8850562,29.3313099 L26.647634,26.0942437 Z" id="Search-Unfilled-Icon" stroke="#FFFFFF" stroke-width="0.5" fill="#FFFFFF"></path>
            </g>
        </g>
    </g>
</svg>